<svg xmlns="http://www.w3.org/2000/svg" id="FRONT" x="0" y="0" version="1.1" viewBox="0 0 716 1020" xml:space="preserve">
  <defs/>
  <style>
    .st0{fill:none;stroke:#fff;stroke-width:2.8;stroke-miterlimit:10}
  </style>
  <path d="M37.4 879.5c.8-5.4 1.2-10 4.2-11.9 3.1-1.9 11.1-21.1 11.9-27.2.8-6.1 3.5-21.1 8.8-29.9s11.1-19.9 11.5-26.1c.4-6.1 6.5-21.9 13-22.2s11.9 5.4 13 12.7c1.2 7.3 1.5 22.6 1.9 28.8.4 6.1 1.9 11.5 0 15.7-1.9 4.2-2.3 4.2-1.5 9.2.8 5 2.5 16.1 2.5 16.1" class="st0"/>
  <path d="M128.3 882.9c-4.6-5.8-5-3.8-7.7-13.8s-2.3-9.6-3.8-18-5.8-10.7-4.6-16.5c1.2-5.8 1.9-7.7-.2-10.7-2.1-3.1-10.2-4.6-10.2-4.6M19.6 851.1c3.9-10.4 8.5-8.8 13.1-11.9 4.6-3.1 0-10.7 4.6-15.3s6.1-13.8 10.7-9.2c4.6 4.6 7.2 15.2 7.2 15.2M337.1 981.1c8.4-.8 14.6-5.4 13.8-13-.8-7.7-7.5-16.1.1-22.2s13-6.9 17.6-10.7c4.6-3.8 15.3-3.8 13-13.8-2.3-10-4-16.1.3-17.6s8.9-4.6 12.7-11.5 8.4-12.3 13-9.2c4.6 3.1 9.2-.8 15.3 4.6 6.1 5.4 11.5 15.3 8.4 26.8-3.1 11.5-.5 11.5.9 22.2s-10.6 14.6 0 29.1l10.6 14.6M390.5 825.7c12.3-4.1 19.2-6.4 23.8-4.1M402.4 815.5c-1.2-12.3 3.5-15.3 7.3-23.8 3.8-8.4-1.5-21.5 4.6-26.1 6.1-4.6 11.5-6.9 15.3 0s10.7 8.8 10.7 8.8" class="st0"/>
  <path d="M471.8 820.7c-.8-6-6.9-16-10.7-29s-3.1-16.9-4.6-23c-1.5-6.1-1.5-11.6-3.8-19.2s-9.2-8.4-12.3-6.8-7.7 13.8-7.7 13.8l-3.1 9.2" class="st0"/>
  <line x1="409.2" x2="425.9" y1="848.2" y2="848.2" class="st0"/>
  <path d="M417.5 841.9c2-6.3 8.9-13.5 11.2-21.1 3.1-9.9 10.4-9.4 14.2-12.4 6.5-5.2 8.8.8 13.4 6.2s8.6 8.9 8.6 8.9" class="st0"/>
  <path d="M457.9 846.1c-.4-8.1-5-15.3 0-17.3 5-1.9 9.2-10.4 10.7-13 1.5-2.7 5 5.6 15.3 0s15.5-1.8 20.1-9.4c4.6-7.6 7.5-15.7 7.5-15.7l-4-10.9 7.5-3.7s4-1.7 5.2-7-.6-16.3 8.6-15.7c9.2.6 16.7-4 18.4 5.8 1.7 9.8 4 33 3.5 40.4s-5.6 13.7.1 20c5.7 6.3 11.4 6.9 9.7 16.1-1.7 9.2-6.3 10.9.3 12.7 6.6 1.7 8.9-4.6 11.8 12.1 2.9 16.7 2.9 29.3 2.9 29.3M68.6 53.7c2.3 18.4-2.1 30.7 9.7 30.7s18.7-9.1 20.2-2.2 5.3 16.4 9.2 19.8c4.9 4.3 14.5 3.5 15.7-7.5 1.2-10.9-6.6-16.3 0-26.3s14.1-20.7 14.1-20.7M197.5 47.5c.6 11.9 1.1 21.7 7.8 19.4 6.6-2.3 4.3-13.9 10.7-9.5 6.3 4.3 5.8 3.2 7.5 15.8s-.8 25.9 4.8 28.2c5.6 2.3 12.7-6.3 12.3-13.2-.4-6.9 2.1-12.7 0-20.1-2.1-7.5-3.1-10.9 0-16.1s7.1-12.1 7.1-12.1M169.9 127.2c1.7 5.9 2.3 11.7 4.6 18 2.3 6.3 3.5 9.7 9.2 8.6 5.8-1.2 6.9-7.4 5.8-13.2-1.2-5.8.2-11.5.4-15" class="st0"/>
  <polyline points="414.2 66.9 416.1 76 423.3 70.8" class="st0"/>
  <polyline points="460.7 177.9 465.6 190 474.8 180.6" class="st0"/>
  <polyline points="558 207.3 562.2 219.2 566.6 212.6" class="st0"/>
  <polyline points="517.3 227.4 526.6 240.7 534.5 227.4" class="st0"/>
  <path d="M112.6 212.6c2.6 5.5-1.1 12.9-.3 18.2s.8 29.9-9.2 35.7c-10 5.8-10-5-12.4-15s-4.5-21.5-4.5-38.9c-.1-17.5-6.1-13.2-7.9-32" class="st0"/>
  <path d="M103.1 190c3.8 9.4 1.2 18.5 9.5 22.6 12.6 6.2 20.4-.7 15-14.9 0 0 1.1-9.1 1.7-14s1.3-11.1 0-13" class="st0"/>
  <polyline points="316.7 50.6 325.6 61.9 342.5 42.9" class="st0"/>
  <path d="M639.3 76c3.8 13.7 2.3 27.2 8.4 25.8 6.1-1.3 12.3-3.6 10-13.6M648.8 139.8c-.2 7.7-6.7 19.2 0 20.3s15.8-10.5 15.9-10.2c0 .4 2.3 2.9 4.6 14.9s0 35.3 6.9 35.1 9.8 1.6 10.4-5.9c.6-7.5-3.5-18.4 0-24.1M664.6 549.6c5.8-9.8 1.4-26.5 7.6-15 6.2 11.5 4.5 15 4.5 15" class="st0"/>
  <g id="RAYLIGHT">
    <ellipse cx="242.2" cy="798.4" fill="#fff" opacity=".96" rx="125.9" ry="27.6"/>
    <radialGradient id="SVGID_1_" cx="242.1705" cy="800.4413" r="231.8789" gradientTransform="matrix(1 0 0 .2 0 640.3531)" gradientUnits="userSpaceOnUse">
      <stop offset="0" stop-color="#fff"/>
      <stop offset="1" stop-color="#fff" stop-opacity="0"/>
    </radialGradient>
    <ellipse cx="242.2" cy="800.4" fill="url(#SVGID_1_)" rx="237.2" ry="55.5"/>
    <polygon fill="#fff" points="428.6 44.1 116.4 798.4 368.1 798.4 549.6 94.5" opacity=".43"/>
    <linearGradient id="SVGID_2_" x1="332.9763" x2="332.9763" y1="44.1066" y2="798.3798" gradientUnits="userSpaceOnUse">
      <stop offset="0" stop-color="#fff"/>
      <stop offset=".7" stop-color="#fff" stop-opacity="0"/>
    </linearGradient>
    <polygon fill="url(#SVGID_2_)" points="428.6 44.1 116.4 798.4 368.1 798.4 549.6 94.5"/>
    <path fill="#fff" d="M441.4 50.2c-12.1-2.9-17.8-9.8-12.7-10.9 5.2-1.2 14.2 1.7 22.9-2.3s16.8-9.8 21.4-6.9c4.6 2.9 6.9 3.5 13.2 3.5s19 6.2 19 6.2h9.2s9.2-1.1 9.8 5.9 8.6 4.6 11.5 4.6c2.9 0 9.2 5.8 6.9 13.2-2.3 7.5-3.6 10.4.5 16.7 4.1 6.3 13.3 14.4 6.4 14.4s-27-2.3-31.1-6.3 1.2-8.6 1.2-8.6l-13.8 4.6s-11.5-5.8-19-10.4c-7.5-4.6-18.4-11.9-18.4-11.9h-13.8l-6.3-10.5-6.9-1.3z"/>
  </g>
</svg>
