<?xml version="1.0" encoding="utf-8"?>
<!-- Generator: Adobe Illustrator 23.1.1, SVG Export Plug-In . SVG Version: 6.00 Build 0)  -->
<svg version="1.1" id="BACK" xmlns="http://www.w3.org/2000/svg" xmlns:xlink="http://www.w3.org/1999/xlink" x="0px" y="0px"
	 viewBox="0 0 716 1020" style="enable-background:new 0 0 716 1020;" xml:space="preserve">
<style type="text/css">
	.st0{fill:none;stroke:#FFFFFF;stroke-width:2.8;stroke-miterlimit:10;}
	.st1{opacity:0.78;}
	.st2{opacity:0.7;fill:none;stroke:#FFFFFF;stroke-width:2.8;stroke-miterlimit:10;}
	.st3{opacity:0.4;fill:none;stroke:#FFFFFF;stroke-width:2.8;stroke-miterlimit:10;}
</style>
<path class="st0" d="M20.6,349.4c5.2-0.3,6,3.7,10.4,1.7c4.3-2,7.2-9.2,10.1-6.9c2.9,2.3,3.2,6,4.3,7.5c1.2,1.4,10.1,0,10.1,0
	l6-12.1c0,0,9.5-7.4,11.5,6.4c2,13.8-0.3,42.5,8.3,42.5s12.1-4.3,11.5-9.2c-0.6-4.9,0.6-18.7,2.3-22.4s0.9-11.8,1.4-17.5
	c0.6-5.8,4.3-9.1,12.4-12.6s22.6-7.7,26.1-13.8s17.6-20.3,18.4-24.2c0.8-3.8,5-31.1,10.7-36.1c5.8-5,33.4-21.9,35.3-25.3
	c1.9-3.5,16.9-26.8,21.1-27.6"/>
<path class="st0" d="M215.9,184.8c2.3,5,4.6,14.2,4.6,20.7c0,6.5,0.4,15.3,6.1,13.4c5.8-1.9,10.7-11.5,11.5-19.2
	c0.8-7.7,1.2-18.8,2.3-19.2"/>
<path class="st0" d="M247.5,183.7c0,0,14.4-9.2,19-13.8s8.1-2.9,14.4-5.2c6.3-2.3,16.1-14.4,20.1-14.4c4,0-1.7,10.4,6.3,8.1
	c8.1-2.3,12.7-12.7,13.8-21.9c1.2-9.2,3.5-14.4,8.1-17.8s8.1-5.2,14.4,0s1.2,10.9,18.4,4c17.3-6.9,20.1-8.8,27-7.3
	c6.9,1.5,8.1,1.5,13.2-6.5s16.7-20.7,23.6-20.7s17.3,4.6,21.3,8.1c4,3.5,6.9,8.1,12.1,4.6c5.2-3.5,4-2.9,10.9-1.7
	c6.9,1.2,13.4,4,19.9,3.3c6.5-0.8,17.6,5.4,21.1,7.7c3.5,2.3,6.9,0.4,7.7,13.4s15.3,3.5,20.7,0s9.2-3.5,11.5,2.7s2.3,9.6,6.9,8.1"/>
<path class="st0" d="M558,116.2c6.1,8.1-3.5,11.1,5.8,16.1c9.2,5,11.7,0.5,12,11.1s2.6,22.4,5.8,21c3.2-1.4,5.2-18.1,4.9-20.4
	c-0.3-2.3,7.2-2,10.9,6s7.2,6.6,10.1,11.2c2.9,4.6,2.6,6.9,3.7,11.2c1.2,4.3-0.3,12.9,7.5,13.2c7.8,0.3,13.2,1.4,13.2,1.4"/>
<path class="st0" d="M631.9,181.8c1.2,3.3,0.8,5.2,4.4,13.8c3.6,8.6,5.2,18.8,9.6,23.6c4.4,4.8,10.2,7.3,14.4,12.3
	c4.2,5,6.5,6.5,6.3,16.1s1.9,23.6,3.6,28.8c1.7,5.2,1,12.3,4.4,12.5c3.5,0.2,7.3,0.6,8.4-3.3c1.2-3.8-1.3-10.7,1-14.2
	s3.1-5.6,3.1-5.6s9.2,4.8,9.8,12.3s1.4,12.9-1.7,18.7c-3.2,5.8-9.8,14.7-15,16.7c-5.2,2-9.5,10.1-8.3,18.1c1.2,8.1,1.2,9.8,0.9,19.8
	s-3.2,12.4-1.7,20.7c1.4,8.3,3.5,14.7,6.9,15.8c3.5,1.2,8.9-0.6,7.5,17.5c-1.4,18.1-2.9,17.5-1.2,25s2.6,7.2,2,16.1
	s-0.6,12.4-0.9,17.5c-0.3,5.2-2,19.8-7.9,29.1"/>
<path class="st0" d="M585.6,680.8c1.5-4.2,3.8-7.7,3.8-12.7c0-5-3.1-10.4,0-13.4c3.1-3.1,3.8-8.8,7.3-10.4c3.5-1.5,9.2-1.5,12.3-4.6
	c3.1-3.1,4.2-5.8,6.1-13.8c1.9-8.1,3.1-31.5,3.5-37.2c0.4-5.8-3.5-12.7,0-19.2c3.5-6.5,5.4-14.6,8.8-19.2
	c3.5-4.6,11.1-15.3,11.1-21.9s-1.5-10,3.8-11.5c5.4-1.5,8.4-1.5,10.7-8.8c2.3-7.3,3.8-14.2,7.3-19.6c3.5-5.4,2.7-11.5,6.9-7.3
	c4.2,4.2,10,10.7,13,16.5c3.1,5.8,8.4,4.6,10.4,0.8s6.7-12.3,6.7-12.3l17.7,5.8"/>
<path class="st0" d="M45.6,602.1c5.4-14.6,2.3-16.9,9.2-40.7c6.9-23.8,5.4-27.6,7.7-45.3c2.3-17.6,4-51.4,15.8-53.7
	s27.9-13,31.7-25.3c3.8-12.3,9.2-22.2,17.6-29.1s8.4-26.1,16.1-24.5s4.2,13.6,10,10.2c5.8-3.5,14.4-25.3,15-32.8s6.3-35.1,6.9-42.6
	c0.6-7.5,4-14.4,8.1-10.4s10.9-3.5,11.5-13.8s-1.7-9.8,0-24.2c1.7-14.4,7.3-28.8,5.8-35.7c-1.5-6.9-1.5-6.9-1.5-6.9"/>
<path class="st0" d="M103.1,664.3c-2.3-15.3-9.2-46-11.5-53.7s-13.3-15.3-13.3-15.3"/>
<path class="st0" d="M78.3,462.5c1.8,19.9-3.4,35.3,0,46.8c3.4,11.5,4.9,21.5,4.9,42.2s3,50.6,3,50.6"/>
<path class="st0" d="M90.7,721.8c2.4-11.5,0.9-20.7,4-29.1c3.1-8.4,0.8-14.6,4.6-21.5c3.8-6.9,5.7-14.6,11.7-10.7
	c6,3.8,5.5,13,9.6,23.8s-4.5,24.5,2.9,32.2c7.3,7.7,9.6,13.8,9.6,13.8s6.9-3.1,11.5,0"/>
<path class="st0" d="M41,779.3c-8.4-3.1-9.2-12.3-6.9-17.3s1.6-13.4-1.1-18.8s-4.3-23-5-29.1s4.6-7.9,0-19.3"/>
<path class="st0" d="M455.6,708c5.8-12.3,7.7-26.1,9.4-34.5c1.7-8.4,7.1-19.9,11.7-9.2c4.6,10.7,3.8,15.6,5.4,19.7
	c1.5,4.1-1.5-1.3,1.5,4.1c3.1,5.4,3.8,19.9,3.8,19.9"/>
<path class="st0" d="M641.5,664.3c2.4-4.6,13.9-16.9,13.9-16.9s-2.3-8.4,0-17.6c2.3-9.2,7.7-35.3,13.8-34.5c6.1,0.8,10-12.3,13-7.7
	c3.1,4.6-3.1,7.7,0,18.4c3.1,10.7,3.8,26.8,6.9,35.3c3.1,8.4,13.8,23,13.8,23"/>
<path class="st0" d="M123.4,694.8c8.1-2.9,30.4-10.9,29.6,0c-0.8,10.9,4.6,23.1,4.6,23.1"/>
<path class="st0" d="M441.4,50.2c-12.1-2.9-17.8-9.8-12.7-10.9c5.2-1.2,14.2,1.7,22.9-2.3s16.8-9.8,21.4-6.9
	c4.6,2.9,6.9,3.5,13.2,3.5s19,6.2,19,6.2h9.2c0,0,9.2-1.1,9.8,5.9s8.6,4.6,11.5,4.6c2.9,0,9.2,5.8,6.9,13.2
	c-2.3,7.5-3.6,10.4,0.5,16.7c4.1,6.3,13.3,14.4,6.4,14.4s-27-2.3-31.1-6.3s1.2-8.6,1.2-8.6l-13.8,4.6c0,0-11.5-5.8-19-10.4
	c-7.5-4.6-18.4-11.9-18.4-11.9h-13.8l-6.3-10.5L441.4,50.2z"/>
<path class="st0" d="M228,629.8c3.1-5.2,2.3-16,6.9-17.7s6.3-3.5,7.8-8.6c1.4-5.2-1.4-13.8,5.5-12.7s12.1,0,13.2,6.9
	c1.2,6.9-1.4,14.1,2.3,20.1s7.8,8.6,8.6,8.3"/>
<path class="st0" d="M357.8,610.2c1.5-5.7,2.3-14.6,5.8-19.6c3.5-5,7.7-13,11.5-12.6s5.4,2.7,6.5,7.7c1.2,5,3.8,5.4,5,11.5
	c1.2,6.1-0.8,12.7,0,17.6c0.8,5-0.4,13.8,2.7,15c3.1,1.2,7.7,7.3,8.8,13.8"/>
<path class="st0" d="M253.5,590.6c2.7-7.3,6.9-10.7,7.7-19.6c0.8-8.8,0.8-19.2,4.2-31.5s5.8-21.5,10.7-23c5-1.5,1.5-5,11.9-5.4
	c10.4-0.4,7.7,3.8,16.9,0c9.2-3.8,11.5-8.4,11.5-8.4"/>
<path class="st0" d="M365.9,587.2c-6.5-2.3-12.3,0.4-11.1-9.2c1.2-9.6,1.6-16.1-0.1-21.1c-1.8-5-5.2-7.3-5.6-10.2
	c-0.4-2.9-2.3-17.1-2.3-19.7c0-2.7-3.1-19.9-2.7-33.8c0.4-13.8-1.2-19.9-2.3-24.2c-1.2-4.2-0.4-13.8-3.1-23.8s-10.4-13.4-14.6-11.1
	c-4.2,2.3-9.2,2.7-7.7,10c1.5,7.3-1.9,13.4-2.7,18.4c-0.8,5-2.7,4.6-4.2,15.3c-1.5,10.7,2.3,11.9,0,18.8s-4.6,14.6-4.6,14.6"/>
<path class="st0" d="M468.2,547.9c-2-2-1.4-22.1-2.9-40c-1.4-17.8-5.2-4-11.5-7.5c-6.3-3.5-5.2,0.9-7.5,6.9c-2.3,6-2,9.8-3.7,11.2
	c-1.7,1.4-1.3-3.1-1.3-3.1s-1.4-4.6-10.6,0c-9.2,4.6,0.8,13-4.8,27.6c-5.6,14.6-12.1,21.5-14.4,37.3"/>
<path class="st0" d="M487.5,595.9c-3.2-6.6-3.5-10.7-3.7-15.6s0.9-6.3-1.4-14.6s1.7-13.5-4-15s-7.8-4.3-10.1,0
	c-2.3,4.3-2,7.5-3.5,14.7c-1.4,7.2-2.6,7.1-6,14.9s-3.1,12.7-3.1,12.7"/>
<path class="st0" d="M556.5,486c-4.9,2.3-20.7,7.8-21,12.5s-4.3,9-3.5,11.8c0.9,2.8,1.4,8.2,1.7,9.7s-2.5,19.8-1.8,23.3
	c0.7,3.5,0.1,4.3-3.6,10.1c-3.7,5.8,0,12.4-10.4,17c-10.4,4.6-9.2,7.8-15,4.3c-5.8-3.5-18.4-5.2-18.4-5.2"/>
<path class="st0" d="M581.5,473.9c-2.3-15.8-1.2-14.7-2-22.1c-0.9-7.5,0.6-17.3,0-25.9c-0.6-8.6,2-16.4-2.6-18.1
	c-4.6-1.7-9.8,0.3-11.8-3.7s-0.9-10.6-4-6.3c-3.2,4.3-3.5,12.9-3.2,19.6s3.6,10.9-0.1,14.7c-3.7,3.7-5.7,2.3-6,9.2s-1.7,2.6-4.3,17
	c-2.6,14.4-4.7,34-4.7,34"/>
<path class="st0" d="M569.7,515.7c0,0-0.9,3.5-4.3,4.6c-3.5,1.2-6.9,3.5-8.9,10.8c-2,7.3,0,22.3,0,28.9s-4.3,4.9-6.3,5.5
	s-3.2,2.6-2.3,6.8c0.9,4.2-1.4,5.9-5,9.6c-3.6,3.7-4.5,0.9-9.1-1.5"/>
<path class="st0" d="M566.6,548.5c0.9-7.5,3.2-9.8,3.2-16.1s-2-20.7,0-27.6c2-6.9,4-10.4,6.6-17c2.6-6.6,4.5-19.8,9.3-21.3
	s13.4-8.1,14,6s-1.2,39.1,0,47.2s4.6-2.9,9.2,8.6c4.6,11.5,6.3,20.9,8.1,31.1c0,0,1,5.9,2.8,8"/>
<path class="st0" d="M570.7,618.8c1.5-4.8,3.1-5.9,3.3-10.5c0.2-4.6,0.2-8.6,1.2-13.2c1-4.6-1-11.1,4-10.4s8.6,3.8,9.4,5.9
	c0.8,2.1,3.1-1.2,4.6,2.7c1.5,3.8,0.8,9,2.5,15"/>
<path class="st0" d="M93.2,610.2c7.7-1.1,11.9-1.5,16.5-4.2c4.6-2.7,11.8-0.4,13.7-3.8c2-3.5,0.4-5,4.7-9.6
	c4.2-4.6,1.9-10.6,8.8-12.2c6.9-1.6,4.6,1.1,15.3-2.4c10.7-3.4,7.3-7,15.3-5.8c8.1,1.2,14.2,0,14.2,0"/>
<path class="st0" d="M181.8,578c0.4-1.9-0.4-5.4,2.3-11.1c2.7-5.8,3.8-13.4,7.7-13.4s6.7-6.5,9.5,2.3c2.8,8.8,1.7,11.8,5.5,16.5
	s9.2,5.8,9.2,5.8"/>
<path class="st0" d="M206.7,572.2c6.1-5.7,0.4-12.6,6.5-13.4s10-1.5,9.6-4.2c-0.4-2.7-4.2-8,0-15.1c4.2-7.1,11.5-14,12.6-7.1
	c1.2,6.9-1.5,13.4,1.9,21.9c3.5,8.4,4.2,15.3,8.8,14.2c4.6-1.2,15,2.7,15,2.7"/>
<g class="st1">
	<path class="st0" d="M149.1,578.9c-0.7-11.3,0.1-31.6,8.5-39.5c8.4-7.9,13.8-21.2,13-29.1c-0.8-7.9-3.7-20.7,0.1-30.4
		s15.3-12,15.3-22.8s-10-17.5,0-23.7c10-6.2,12-7.8,15.2-13.9s9.3-17.6,10.9-34.5c1.5-16.9-6.9-35.3,3.8-29.1
		c10.7,6.1,9.2,7.7,12.3,19.2c3.1,11.5,3.8-3.8,5.8-10c1.9-6.1-0.4-3.8,6.5-17.6s9.4-15.3,9.7-19.9s4.1-6.9,3.4-19.9
		c-0.8-13,7.7-37.6,7.7-56s2.3-22.5-3.8-32.3c-6.1-9.9-4.2-9.9-9.8-15.2c-5.6-5.4-7.1-10-7.1-10"/>
	<path class="st0" d="M309.5,477.9c-10-18.4-12.3-39-11.5-44.4c0.8-5.5,0.6-20.8,5.7-25.4c5.1-4.6,12.7,4.6,12.7-7.7
		s-4.6-15.3-4.6-29.9s5.4-19.9,4.6-28.4c-0.8-8.4,0.9-10.7,0.1-26.8c-0.8-16.1-2.4-32.2-3.9-39.1"/>
	<path class="st0" d="M304.9,285.3c-0.8-9.2,15.3-11.5,16.1-16.9c0.8-5.4-3.8-18.4,0-25.3c3.8-6.9,5.4-10,10.7-19.2
		c5.4-9.2,10-22.2,11.5-29.9c1.5-7.7,0-6.1,14.6-18.4c14.6-12.3,12.3-18.4,14.6-27.6"/>
</g>
<path class="st0" d="M377.9,502.8c8.2-7.3,6.7-11.9,8.2-24.9c1.5-13-4.6-35.3,3.8-28.4c8.4,6.9,5.4,16.7,8.1,26s7.3,8.4,10.4,0
	c3.1-8.4,10-19.1,13-7.6c3.1,11.5,5.4,17.9,13.8,12"/>
<path class="st0" d="M461.4,484c5.4-10.7,3.4-29.1,10.2-13c6.7,16.1-1,22.1,5.2,27.6c6.1,5.4,12.3,9.3,17.6,4.3
	c5.4-5,3.8-9.7,10-4.3s10.9,2.4,16.2,4.3c5.3,1.9,11.5,7.5,11.5,7.5"/>
<path class="st0" d="M631.9,463.7c7.5-12.6,12.1-23.2,12.8-30.2s-10.7-34.2,3.1-18.7c13.8,15.5,6.1,15.6,13.8,22.1
	c7.7,6.5,10.7,14.2,10.7,14.2"/>
<path class="st0" d="M365.9,266.9c1.2,12.3,1.2,29.9,6.5,27.2s3.5-5.1,5.6-13.5c2.1-8.4,1.3-18,0-21c-1.3-3.1-2.9-9.6,1.3-11.1"/>
<path class="st0" d="M272.3,196.4c5.8-1.9,6.9-1.3,8.4,3.6c1.5,4.9,1.5,16.4,4.6,23.3s2.7,13,6.1,10s3.1-10.2,3.5-13.9
	c0.4-3.7,4.3-1.4,2.9-9.9s-0.2-17.3,3.2-18s3.1,5,7.7,2.7"/>
<path class="st0" d="M325.6,161.1c1.5,7.7-1.9,17.6,4.6,10.7s6.1-13.8,6.5-18"/>
<path class="st0" d="M397.1,177.9c2.9,7.5,4.1,13.8,5.7,18.1c1.5,4.3,1.8,7.5,6.1,5.5s4.6-6,5.2-8.9c0.6-2.9-1.7-8.4,0-10.8"/>
<path class="st0" d="M485.4,125.6c2.3,7.2,6,6.9,6.6,10.4c0.6,3.5,1.7,11.3,2,15.7s-0.9,5,0,7.9c0.9,2.9,2.3,7.1,7.2,4.4
	c4.9-2.7,5.8-7.3,5.5-10.2c-0.3-2.9-1.6-10.6,0-13.8s4.6-7.2,4.6-7.2"/>
<path class="st0" d="M426.9,122.1c3.1,3.7,2.8,4.3,3.3,7.8c0.6,3.5,2,6.3,6.6,6c4.6-0.3,8.3-2.3,8.9-6.9c0.6-4.6,8.3-10.7,8.3-10.7"
	/>
<path class="st0" d="M214.6,511.4c1.7-3.3,2.9-5.9,4.2-10c1.3-4,0.2-6.5,2.7-10.5c2.5-4,2.9-8.1,6.5-7.7s4.8-1.9,5.9,2.1
	c1.2,4,0,3.3,1.2,7.3s0,7.9,2.9,8.6c2.9,0.8,6.3,1.5,6.3,1.5"/>
<path class="st0" d="M288,486.9c-4-2.3-6.5-5.4-6.5-9c0-3.6,0.2-10.2,0-13.2c-0.2-3.1,0.2-6.9,0-10c-0.2-3.1-1.2-5.9-1.5-9.6
	c-0.4-3.6,2.1-8.1-2.9-8.4c0,0-2.9-1.7-5.6,0c-2.7,1.7-5.2,5.9-5.2,5.9"/>
<path class="st0" d="M267.5,461.4c-0.6-1.7-2.9-9.9-2.3-13.2c0.6-3.3,0.2-7.9-0.1-12.3c-0.3-4.4-0.6-15.5-3.5-15.3s-5.8-2.7-8.1,0
	c-2.3,2.7-4.8,3.3-4.2,6.1c0.6,2.9,1.9,4.8,1.2,10.2c-0.8,5.4-1.5,8.1-1.2,13.6c0.3,5.6,0.1,8.4-1.3,13.8c-1.3,5.4-3.5,10-3.6,11.2"
	/>
<path class="st2" d="M461.4,484l-5.8-13.8l-9,6.9c0,0-24.2-25-24.7-32.9c-0.6-7.9,0.6-16-4.6-21.2c-5.2-5.2-15.5-2.3-13.8-13
	c1.7-10.6,3.2-13.8,3.2-13.8s-6.3-18.2-4.9-22.8c1.4-4.6,5.8-10.6,4.9-15.2c-0.9-4.6-3.5-12.7-2.3-17.8c1.2-5.2,5.2-15.2,7.2-7.6
	c2,7.6,4.6,15.6,8.9,11.6c4.3-4,0.3-14.7,2.3-23c2-8.3,3.2-15.2,5.5-15s8.9-16.2,11.7-21.2c2.7-5-1.9-12.4,6.2-13.9
	c8.1-1.5,12.7-2.5,18.4,0s-0.8,2.5,7.1,10s10.2,3.5,10.7-2.3c0.6-5.8-6.3-9.8,2.3-12.7c8.6-2.9,13.2-4.6,16.1,0
	c2.9,4.6,6.3,14,10.4,9.6c4-4.4-1.2-8.9,2.3-12.4c3.5-3.5,5.2-6.9,12.7,0c7.5,6.9,14.4,6.3,20.1,5.1c5.8-1.2,11.5,1.3,10.4,7.3
	c-1.2,5.9,2.7,7.7,5.7,3.6c2.9-4-3.4-13.2,7.5-11.5c10.9,1.7,1.2,11.7,18.4,7.9c17.3-3.8,21.9-5,23.6,4.8s-0.6,23,5.2,23
	s6.9,10.9,7.5,25.3c0.6,14.4,1.7,39.7,0,50.6s0.4,19-4.7,16.4s-7.4-14.7-9.7-7.8c-2.3,6.9-0.6,13.2-2.9,18.4
	c-2.3,5.2,1.2,12.1-5.2,15c-6.3,2.9-8.6,5.3-6.3,11.6c2.3,6.2,5.2,4.2,0,14.7c-5.2,10.5-5.4,16.4-5.4,16.4"/>
<path class="st0" d="M82.9,537.6c19.8-1.4,31.4-3,34.7,5.7c3.3,8.6,7.9,12.7,16.6,13.8s14.7,2.9,14.7,2.9"/>
<path class="st3" d="M423.3,448.2c10.1-2.2,48.1-24.6,56.1-47c8.1-22.4,4.6-24.2,8.1-31.6s8.7-15.5,9.3-24.2c0.5-8.6,2.9-28.8,0-38
	c-2.9-9.2-7.5-10.9-5.2-18.4c2.3-7.5-6.9-22.4-6.9-22.4"/>
<path class="st3" d="M551.7,436.9c-10.2-6.4-16-11.3-18-22.1c-2-10.7-14.1-16.5-13.2-32c0.9-15.5-7.8-13.2,0-31.6
	c7.8-18.4,8.3-31.6,13.2-29.3c4.9,2.3,5.8,0.6,9.1-8.6s-1.3-19.4,2.7-27.8c4-8.4,6.2-13.9,6.2-13.9"/>
</svg>
