<svg xmlns="http://www.w3.org/2000/svg" viewBox="0 0 681.4 230">
  <defs/>
  <path d="M549.5 10h-76.9c-6.6 0-11.9 5.3-11.9 11.9V98c0 6.6 5.3 11.9 11.9 11.9h76.9c6.6 0 11.9-5.3 11.9-11.9V21.9c0-6.6-5.3-11.9-11.9-11.9zm-6.2 86.8h-64.5c-2.8 0-5-2.2-5-5V28.2c0-2.8 2.2-5 5-5h64.5c2.8 0 5 2.2 5 5v63.7c0 2.7-2.3 4.9-5 4.9zM549.5 120h-76.9c-6.6 0-11.9 5.3-11.9 11.9V208c0 6.6 5.3 11.9 11.9 11.9h76.9c6.6 0 11.9-5.3 11.9-11.9v-76.1c0-6.6-5.3-11.9-11.9-11.9zm-6.2 86.8h-64.5c-2.8 0-5-2.2-5-5v-63.7c0-2.8 2.2-5 5-5h64.5c2.8 0 5 2.2 5 5v63.7c0 2.8-2.3 5-5 5zM438.7 120h-76.1c-6.6 0-11.9 5.3-11.9 11.9V208c0 6.6 5.3 11.9 11.9 11.9h76.1c6.6 0 11.9-5.3 11.9-11.9v-76.1c0-6.6-5.3-11.9-11.9-11.9zm-6.2 86.8h-63.7c-2.8 0-5-2.2-5-5v-63.7c0-2.8 2.2-5 5-5h63.7c2.8 0 5 2.2 5 5v63.7c0 2.8-2.3 5-5 5zM659.5 120h-76.1c-6.6 0-11.9 5.3-11.9 11.9V208c0 6.6 5.3 11.9 11.9 11.9h76.1c6.6 0 11.9-5.3 11.9-11.9v-76.1c0-6.6-5.3-11.9-11.9-11.9zm-6.2 86.8h-63.7c-2.8 0-5-2.2-5-5v-63.7c0-2.8 2.2-5 5-5h63.7c2.8 0 5 2.2 5 5v63.7c0 2.8-2.3 5-5 5z"/>
  <path d="M511 42.9l-17.3 34.2h34.6zM528.3 152.9h-34.6l17.3 34.2zM417.8 152.9L383.5 170l34.3 17.1zM604.3 152.9v34.2l34.3-17.1zM131.9 110H208c6.6 0 11.9-5.3 11.9-11.9V21.9c0-6.6-5.3-11.9-11.9-11.9h-76.1c-6.6 0-11.9 5.3-11.9 11.9V98c-.1 6.7 5.3 12 11.9 12zm6.1-86.9h63.8c2.8 0 5 2.2 5 5v63.8c0 2.8-2.2 5-5 5H138c-2.8 0-5-2.2-5-5V28.1c0-2.8 2.3-5 5-5zM208.8 120h-76.9c-6.6 0-11.9 5.3-11.9 11.9V208c0 6.6 5.3 11.9 11.9 11.9h76.9c6.6 0 11.9-5.3 11.9-11.9v-76.1c0-6.6-5.3-11.9-11.9-11.9zm-6.2 86.8h-64.5c-2.8 0-5-2.2-5-5v-63.7c0-2.8 2.2-5 5-5h64.5c2.8 0 5 2.2 5 5v63.7c0 2.8-2.3 5-5 5zM98 120H21.9c-6.6 0-11.9 5.3-11.9 11.9V208c0 6.6 5.3 11.9 11.9 11.9H98c6.6 0 11.9-5.3 11.9-11.9v-76.1c0-6.6-5.3-11.9-11.9-11.9zm-20.9 67.1L42.8 170l34.3-17.1v34.2zM318.8 120h-76.1c-6.6 0-11.9 5.3-11.9 11.9V208c0 6.6 5.3 11.9 11.9 11.9h76.1c6.6 0 11.9-5.3 11.9-11.9v-76.1c0-6.6-5.3-11.9-11.9-11.9zm-55.2 67.1v-34.3l34.3 17.1-34.3 17.2z"/>
  <path d="M153.1 77.1h34.5l-17.3-34.2zM187.6 152.9h-34.5l17.2 34.2z"/>
</svg>
