<?xml version="1.0" encoding="utf-8"?>
<!-- Generator: Adobe Illustrator 23.1.1, SVG Export Plug-In . SVG Version: 6.00 Build 0)  -->
<svg version="1.1" id="TOTAL" xmlns="http://www.w3.org/2000/svg" xmlns:xlink="http://www.w3.org/1999/xlink" x="0px" y="0px"
	 viewBox="0 0 1120 780" style="enable-background:new 0 0 1120 780;" xml:space="preserve">
<style type="text/css">
	.st0{fill:none;stroke:#FFFFFF;stroke-width:3;stroke-miterlimit:10;}
	.st1{fill:none;stroke:#FFFFFF;stroke-width:2.9082;stroke-miterlimit:10;}
</style>
<path class="st0" d="M-0.5,716.5c19-2,8-20,20-19s-1,10,11,15s23,2,31-1s10-1,13-1s9-4,14-7s5-12,10-15s6-5,16,0s17,12,26,9
	s8-8,21-7s25-3,31,1s13,4,18,1s12-22,12-22s-3-26,6-26s13,2,14,5s1,12,4,22s3,15,7,20s7,10,15,9s20,0,22-9s2-29,5-34s13-9,17-13
	s6,2,11-11s19-24,17-39s-18-32-12-41s12-14,16-27s19-54,23-69s13-39,11-64s-6-57-12-64s-15-7-16,0s4,25-2,31s-23,15-22,4
	s-3-98-6-109s-7-49-15-56s-11-9-14-18s-22-30-28-22s-5,27-14,28s-12,0-12-12s0-27-3-35s-4-18-9-23s-3-13-10-15s-9,9-16,4s-12-7-17-4
	s-13,4-31-1s-34-10-41-5s-16,25-26,26s-15-8-24-6s-10,4-34-9s-27-8-27-8"/>
<path class="st0" d="M1082.5,739.5c-17-4-16-1-32-8s-22-7-33-3s-19,9-27,4s-19-12-28-10s-28-3-31-4s-37-4-43-6s-23,0-27-6
	s-20-13-26-11s-18,5-27,5s-30-11-36-5s-27,11-35,7s-18-8-24-9s-25-7-34-4s-24,4-33-3s-25-11-34-7s-17,5-23-2s-24-8-29-10
	s-23-35-19-50s13-60,13-64s-3-21-4-27s-7-35-10-45s0-15-4-20s-19-22-19-41s15-38,15-50s-7-32-5-53s13-55,23-74c0,0,2,47,6,56
	s14,3,14-4s0-16,0-30s-3-25,4-30s9-16,15-8s3,17,9,15s0-16,7-18s17-9,18,0s-3,12,3,28s14,30,19,28s18-2,15-18s-6-35-1-38s21-3,29,1
	s6,16,6,16s17-2,19,7s0,19,5,20s37-77,40-84s6-23,15-21s11,7,19,0s11-13,20-17s10-4,11,4s-2,28,5,28s13-3,18-13s3-26,4-34s6-21,8-27
	s-7-8,1-16s4-4,12-15s6-6,12-16s9-23,17-17s8,13,16,6c0,0,32-15,41-8s18,3,27-2s32-9,36-16s11-21,11-21"/>
<path class="st0" d="M368.5,74.5c7,13,4,34,10,48s18,20,20,0s4-46,8-48"/>
<path class="st0" d="M836.5,292.5c-3.5-1-10-19-6-28s19-50,32-66s40-42,61-44s52,2,71,23s60,59,69,109s-6,47-13,46s-25-13-28-24
	s-41-103-87-104s-62,52-65,60s-5,21-11,25c-5.2,3.5-11.3,5.5-19.4,3.9C839,293.2,837.8,292.9,836.5,292.5z"/>
<line class="st0" x1="1035.5" y1="726.3" x2="1035.5" y2="324.6"/>
<line class="st0" x1="1065.5" y1="321.9" x2="1065.5" y2="736.5"/>
<line class="st0" x1="823" y1="698.8" x2="840.1" y2="293.4"/>
<line class="st0" x1="855.2" y1="291.9" x2="838.2" y2="695.2"/>
<line class="st0" x1="925.5" y1="717.5" x2="937.8" y2="204.6"/>
<path class="st0" d="M100.5,194.5c7,16,13,10,14,23s-6,27,3,30s11,4,12-4s-8-15,0-28"/>
<path class="st0" d="M170.5,279.5c4,9,5,18,7,25s8,9,10,6s-2-10,0-18s1-17,1-17"/>
<path class="st0" d="M84.5,122.5c0,0-1,10-4,17s-12,10-22,15s-9,9-15,16s-7,122-7,123s1,48,4,58s-1,126-6,144s-2,31,0,45
	s13,43,15,41s8,14,8,20s0,13,2,19s13,16,21,19c10,3.7,14-14,15-23s-3-17,4-15s11,4,14,15s-2,16,4,21s10,7,12,7c0,0,14,8,26,8
	s9,7,15,11s10,5,18,6s13,4,14,10s8,16,8,16"/>
<path class="st0" d="M679.5,689.5c10-5,20-15,27-17s9,6,16,0s1-11,18-13s9,10,24,4s37-15,37-15l24.7-25"/>
<path class="st1" d="M830.3,525.7c-7.8-0.2-16.8,0.8-17.8-2s4-10.3-2-14.1c-6-3.8-11-2.8-12-9.4c-1-6.6-7-16-11-19.7s-5-31-5-40.4
	c0-9.4,0-21.6-6-32s-18-20.7-15-32.9c3-12.2,4-31,2-34.8c-2-3.8-6-18.8-11-16c-5,2.8-5,11.3-7,16c-2,4.7-3,16-9,9.4
	s-11-12.2-10-21.6c1-9.4,1-13.2-3-16.9s-7,0.9-6-8.5c1-9.4,0-18.8,0-18.8"/>
<path class="st0" d="M353.5,701.5c5-9,8-15,13-12s7,5,8,6"/>
<path class="st0" d="M392.5,665.5c-1-5-1-19,0-25s1-11,4-17s5-17,9-13s6,9,7,18s-1,11,3,15s13,13,13,13"/>
<path class="st0" d="M482.5,677.5c2-7,4-11,5-18s4-16,8-12s4,4,6,13s0,11,5,17s7,6,7,6"/>
<path class="st0" d="M513.5,780.5c2-6,1-13,7-17s4-11,9-3s7,9,7,12s2,8,2,8"/>
<path class="st0" d="M640.5,656.5c0-6-2-12,0-21s7-17,11-18s7,0,12,8s9,11,9,11"/>
<path class="st0" d="M770.5,633.5c1-8,3-15,8-10s9,13,9,13"/>
<path class="st0" d="M461.4,54.2c2.3,18.4-2.1,30.7,9.7,30.7s18.7-9.1,20.2-2.2c1.5,6.9,5.3,16.4,9.2,19.8
	c4.9,4.3,14.5,3.5,15.7-7.5s-6.6-16.3,0-26.3c6.6-10,14.1-20.7,14.1-20.7"/>
<path class="st0" d="M590.2,48c0.6,11.9,1.1,21.7,7.8,19.4c6.6-2.3,4.3-13.9,10.7-9.5s5.8,3.2,7.5,15.8c1.7,12.7-0.8,25.9,4.8,28.2
	s12.7-6.3,12.3-13.2c-0.4-6.9,2.1-12.7,0-20.1s-3.1-10.9,0-16.1c3.1-5.2,7.1-12.1,7.1-12.1"/>
<path class="st0" d="M562.6,127.7c1.7,5.9,2.3,11.7,4.6,18c2.3,6.3,3.5,9.7,9.2,8.6c5.8-1.2,6.9-7.4,5.8-13.2
	c-1.2-5.8,0.2-11.5,0.4-15"/>
<path class="st0" d="M505.4,213.1c2.6,5.5-1.1,12.9-0.3,18.2c0.8,5.4,0.8,29.9-9.2,35.7c-10,5.8-10-5-12.4-15
	c-2.4-10-4.5-21.5-4.5-38.9s-6.1-13.2-7.9-32"/>
<path class="st0" d="M495.9,190.5c3.8,9.4,1.2,18.5,9.5,22.6c12.6,6.2,20.4-0.7,15-14.9c0,0,1.1-9.1,1.7-14c0.6-5,1.3-11.1,0-13"/>
<path class="st0" d="M294.5,699.5c22-2,38,7,38,7l34,2"/>
<polyline class="st0" points="487.5,695.5 524.5,689.5 544.5,683.5 "/>
</svg>
