<svg xmlns="http://www.w3.org/2000/svg" id="TOTAL" x="0" y="0" version="1.1" viewBox="0 0 1120 780" xml:space="preserve">
  <defs/>
  <style>
    .st0{fill:none;stroke:#fff;stroke-width:3;stroke-miterlimit:10}
  </style>
  <path d="M-.5 716.5c19-2 8-20 20-19s-1 10 11 15 23 2 31-1 10-1 13-1 9-4 14-7 5-12 10-15 6-5 16 0 17 12 26 9 8-8 21-7 25-3 31 1 13 4 18 1 12-22 12-22-3-26 6-26 13 2 14 5 1 12 4 22 3 15 7 20 7 10 15 9 20 0 22-9 2-29 5-34 13-9 17-13 6 2 11-11 19-24 17-39-18-32-12-41 12-14 16-27 19-54 23-69 13-39 11-64-6-57-12-64-15-7-16 0 4 25-2 31-23 15-22 4-3-98-6-109-7-49-15-56-11-9-14-18-22-30-28-22-5 27-14 28-12 0-12-12 0-27-3-35-4-18-9-23-3-13-10-15-9 9-16 4-12-7-17-4-13 4-31-1-34-10-41-5-16 25-26 26-15-8-24-6-10 4-34-9-27-8-27-8M1082.5 739.5c-17-4-16-1-32-8s-22-7-33-3-19 9-27 4-19-12-28-10-28-3-31-4-37-4-43-6-23 0-27-6-20-13-26-11-18 5-27 5-30-11-36-5-27 11-35 7-18-8-24-9-25-7-34-4-24 4-33-3-25-11-34-7-17 5-23-2-24-8-29-10-23-35-19-50 13-60 13-64-3-21-4-27-7-35-10-45 0-15-4-20-19-22-19-41 15-38 15-50-7-32-5-53 13-55 23-74c0 0 2 47 6 56s14 3 14-4v-30c0-14-3-25 4-30s9-16 15-8 3 17 9 15 0-16 7-18 17-9 18 0-3 12 3 28 14 30 19 28 18-2 15-18-6-35-1-38 21-3 29 1 6 16 6 16 17-2 19 7 0 19 5 20 37-77 40-84 6-23 15-21 11 7 19 0 11-13 20-17 10-4 11 4-2 28 5 28 13-3 18-13 3-26 4-34 6-21 8-27-7-8 1-16 4-4 12-15 6-6 12-16 9-23 17-17 8 13 16 6c0 0 32-15 41-8s18 3 27-2 32-9 36-16 11-21 11-21M368.5 74.5c7 13 4 34 10 48s18 20 20 0 4-46 8-48" class="st0"/>
  <path d="M836.5 292.5c-3.5-1-10-19-6-28s19-50 32-66 40-42 61-44 52 2 71 23 60 59 69 109-6 47-13 46-25-13-28-24-41-103-87-104-62 52-65 60-5 21-11 25c-5.2 3.5-11.3 5.5-19.4 3.9-1.1-.2-2.3-.5-3.6-.9zM1035.5 726.3V324.6M1065.5 321.9v414.6M823 698.8l17.1-405.4M855.2 291.9l-17 403.3M925.5 717.5l12.3-512.9M100.5 194.5c7 16 13 10 14 23s-6 27 3 30 11 4 12-4-8-15 0-28M170.5 279.5c4 9 5 18 7 25s8 9 10 6-2-10 0-18 1-17 1-17M84.5 122.5s-1 10-4 17-12 10-22 15-9 9-15 16-7 122-7 123 1 48 4 58-1 126-6 144-2 31 0 45 13 43 15 41 8 14 8 20 0 13 2 19 13 16 21 19c10 3.7 14-14 15-23s-3-17 4-15 11 4 14 15-2 16 4 21 10 7 12 7c0 0 14 8 26 8s9 7 15 11 10 5 18 6 13 4 14 10 8 16 8 16M679.5 689.5c10-5 20-15 27-17s9 6 16 0 1-11 18-13 9 10 24 4 37-15 37-15l24.7-25" class="st0"/>
  <path fill="none" stroke="#fff" stroke-miterlimit="10" stroke-width="2.9082" d="M830.3 525.7c-7.8-.2-16.8.8-17.8-2s4-10.3-2-14.1c-6-3.8-11-2.8-12-9.4-1-6.6-7-16-11-19.7s-5-31-5-40.4c0-9.4 0-21.6-6-32s-18-20.7-15-32.9 4-31 2-34.8c-2-3.8-6-18.8-11-16-5 2.8-5 11.3-7 16-2 4.7-3 16-9 9.4s-11-12.2-10-21.6c1-9.4 1-13.2-3-16.9s-7 .9-6-8.5 0-18.8 0-18.8"/>
  <path d="M353.5 701.5c5-9 8-15 13-12s7 5 8 6M392.5 665.5c-1-5-1-19 0-25s1-11 4-17 5-17 9-13 6 9 7 18-1 11 3 15l13 13M482.5 677.5c2-7 4-11 5-18s4-16 8-12 4 4 6 13 0 11 5 17 7 6 7 6M513.5 780.5c2-6 1-13 7-17s4-11 9-3 7 9 7 12 2 8 2 8M640.5 656.5c0-6-2-12 0-21s7-17 11-18 7 0 12 8 9 11 9 11M770.5 633.5c1-8 3-15 8-10s9 13 9 13M461.4 54.2c2.3 18.4-2.1 30.7 9.7 30.7s18.7-9.1 20.2-2.2c1.5 6.9 5.3 16.4 9.2 19.8 4.9 4.3 14.5 3.5 15.7-7.5s-6.6-16.3 0-26.3S530.3 48 530.3 48M590.2 48c.6 11.9 1.1 21.7 7.8 19.4 6.6-2.3 4.3-13.9 10.7-9.5s5.8 3.2 7.5 15.8c1.7 12.7-.8 25.9 4.8 28.2s12.7-6.3 12.3-13.2c-.4-6.9 2.1-12.7 0-20.1s-3.1-10.9 0-16.1c3.1-5.2 7.1-12.1 7.1-12.1M562.6 127.7c1.7 5.9 2.3 11.7 4.6 18 2.3 6.3 3.5 9.7 9.2 8.6 5.8-1.2 6.9-7.4 5.8-13.2-1.2-5.8.2-11.5.4-15M505.4 213.1c2.6 5.5-1.1 12.9-.3 18.2.8 5.4.8 29.9-9.2 35.7-10 5.8-10-5-12.4-15-2.4-10-4.5-21.5-4.5-38.9s-6.1-13.2-7.9-32" class="st0"/>
  <path d="M495.9 190.5c3.8 9.4 1.2 18.5 9.5 22.6 12.6 6.2 20.4-.7 15-14.9 0 0 1.1-9.1 1.7-14 .6-5 1.3-11.1 0-13M294.5 699.5c22-2 38 7 38 7l34 2M487.5 695.5l37-6 20-6" class="st0"/>
</svg>
