<?xml version="1.0" encoding="utf-8"?>
<!-- Generator: Adobe Illustrator 23.1.1, SVG Export Plug-In . SVG Version: 6.00 Build 0)  -->
<svg version="1.0" id="traces" xmlns="http://www.w3.org/2000/svg" xmlns:xlink="http://www.w3.org/1999/xlink" x="0px" y="0px"
	 viewBox="0 0 842 1200" style="enable-background:new 0 0 842 1200;" xml:space="preserve">
<style type="text/css">
	.st0{opacity:0.4;fill:none;stroke:#FFFFFF;stroke-width:3.6;stroke-miterlimit:10;}
	.st1{opacity:0.7;fill:none;stroke:#FFFFFF;stroke-width:3.6;stroke-miterlimit:10;}
	.st2{fill:none;stroke:#FFFFFF;stroke-width:3.6;stroke-miterlimit:10;}
	.st3{opacity:0.78;}
	.st4{fill:url(#SVGID_1_);}
	.st5{opacity:0.96;fill:#FFFFFF;}
	.st6{opacity:0.36;fill:#FFFFFF;}
	.st7{fill:url(#SVGID_2_);}
	.st8{fill:#FFFFFF;}
	.st9{fill:none;stroke:#000000;stroke-width:3.6;stroke-miterlimit:10;}
	.st10{fill:url(#SVGID_3_);stroke:#FFFFFF;stroke-width:2.4239;stroke-miterlimit:10;}
</style>
<path class="st0" d="M498.9,528.2c11.9-2.5,56.5-28.9,66-55.3c9.5-26.4,5.4-28.4,9.5-37.2c4.1-8.8,10.3-18.3,10.9-28.4
	c0.6-10.1,3.4-33.8,0-44.6c-3.4-10.8-8.9-12.9-6.1-21.6c2.7-8.8-8.1-26.4-8.1-26.4"/>
<path class="st0" d="M649.9,514.9c-12-7.5-18.8-13.3-21.1-26c-2.4-12.6-16.6-19.4-15.6-37.7c1-18.3-9.1-15.6,0-37.2
	c9.1-21.6,9.8-37.2,15.6-34.5c5.7,2.7,6.8,0.7,10.7-10.1s-1.5-22.8,3.2-32.7c4.7-9.9,7.3-16.3,7.3-16.3"/>
<path class="st1" d="M543.7,570.3l-6.8-16.2l-10.6,8.1c0,0-28.4-29.4-29.1-38.7c-0.7-9.3,0.7-18.8-5.4-24.9
	c-6.1-6.1-18.3-2.7-16.2-15.2c2-12.5,3.7-16.2,3.7-16.2s-7.4-21.3-5.7-26.8c1.7-5.4,6.8-12.5,5.7-17.9c-1-5.4-4.1-14.9-2.7-21
	c1.4-6.1,6.1-17.8,8.5-8.9c2.4,8.9,5.4,18.4,10.5,13.6s0.3-17.2,2.7-27.1c2.4-9.8,3.7-17.9,6.4-17.6s10.5-19.1,13.7-24.9
	c3.2-5.9-2.2-14.6,7.3-16.3s14.9-3,21.6,0s-0.9,3,8.3,11.8c9.2,8.8,12,4.1,12.6-2.7s-7.4-11.5,2.7-14.9c10.1-3.4,15.6-5.4,18.9,0
	c3.4,5.4,7.4,16.5,12.2,11.3c4.7-5.2-1.4-10.5,2.7-14.6c4.1-4.1,6.1-8.1,14.9,0c8.8,8.1,16.9,7.4,23.7,6c6.8-1.4,13.5,1.6,12.2,8.6
	c-1.4,7,3.2,9,6.7,4.3s-4-15.6,8.9-13.5s1.4,13.8,21.6,9.2c20.3-4.5,25.7-5.9,27.7,5.6c2,11.5-0.7,27.1,6.1,27.1s8.1,12.9,8.8,29.8
	c0.7,16.9,2,46.7,0,59.5c-2,12.9,0.5,22.4-5.5,19.3c-6-3.1-8.7-17.3-11.4-9.2s-0.7,15.6-3.4,21.6c-2.7,6.1,1.4,14.2-6.1,17.6
	c-7.4,3.4-10.1,6.3-7.4,13.6c2.7,7.3,6.1,5,0,17.3c-6.1,12.4-6.3,19.3-6.3,19.3"/>
<path class="st2" d="M98.7,633.3c23.3-1.6,36.9-3.5,40.9,6.7s9.3,14.9,19.5,16.2c10.1,1.4,17.3,3.4,17.3,3.4"/>
<g class="st3">
	<path class="st2" d="M176.5,681.9c-0.8-13.3,0.1-37.1,10-46.4s16.2-25,15.3-34.3c-0.9-9.3-4.3-24.3,0.1-35.7
		c4.4-11.4,18-14.1,18-26.8c0-12.6-11.7-20.5,0-27.9c11.7-7.3,14.2-9.1,17.9-16.3s11-20.7,12.8-40.6c1.8-19.8-8.1-41.5,4.5-34.3
		s10.8,9,14.4,22.5c3.6,13.5,4.5-4.5,6.8-11.7c2.3-7.2-0.5-4.5,7.7-20.7c8.1-16.2,11-18,11.4-23.4c0.3-5.4,4.8-8.1,3.9-23.4
		c-0.9-15.3,9-44.2,9-65.8c0-21.6,2.7-26.4-4.5-38c-7.2-11.6-5-11.6-11.5-17.9c-6.5-6.3-8.3-11.7-8.3-11.7"/>
	<path class="st2" d="M365.1,563.1c-11.7-21.6-14.4-45.8-13.5-52.2c0.9-6.4,0.7-24.4,6.7-29.9c5.9-5.4,15,5.4,15-9
		c0-14.4-5.4-18-5.4-35.2s6.3-23.4,5.4-33.4s1.1-12.6,0.1-31.6s-2.8-37.9-4.6-46"/>
	<path class="st2" d="M359.7,336.7c-0.9-10.8,18-13.5,18.9-19.8c0.9-6.3-4.5-21.6,0-29.8c4.5-8.1,6.3-11.7,12.6-22.5
		c6.3-10.8,11.7-26.2,13.5-35.2s0-7.2,17.1-21.6c17.1-14.4,14.4-21.6,17.1-32.5"/>
</g>
<path class="st2" d="M445.6,592.4c9.7-8.6,7.9-14,9.7-29.3s-5.4-41.5,4.5-33.4s6.3,19.7,9.5,30.6c3.2,10.9,8.6,9.8,12.2,0
	c3.6-9.8,11.7-22.5,15.3-8.9c3.6,13.5,6.3,21.1,16.2,14.1"/>
<path class="st2" d="M543.7,570.3c6.3-12.6,4.1-34.3,11.9-15.3c7.9,18.9-1.1,26,6.1,32.4c7.2,6.4,14.4,10.9,20.7,5
	c6.3-5.9,4.5-11.4,11.7-5c7.2,6.4,12.9,2.8,19.1,5c6.2,2.3,13.5,8.8,13.5,8.8"/>
<path class="st2" d="M744.1,546.4c8.8-14.9,14.2-27.3,15.1-35.5c0.9-8.2-12.6-40.2,3.6-22c16.2,18.3,7.2,18.3,16.2,26
	c9,7.6,12.6,16.7,12.6,16.7"/>
<path class="st2" d="M431.4,315c1.4,14.4,1.4,35.2,7.7,32c6.3-3.2,4.1-6,6.5-15.8c2.5-9.9,1.6-21.1,0-24.7
	c-1.6-3.6-3.5-11.3,1.5-13.1"/>
<path class="st2" d="M321.3,232.1c6.8-2.3,8.1-1.5,9.9,4.2c1.8,5.7,1.8,19.2,5.4,27.4c3.6,8.1,3.2,15.3,7.2,11.7
	c4.1-3.6,3.6-12,4.1-16.4c0.5-4.4,5.1-1.7,3.4-11.6s-0.3-20.3,3.8-21.2c4.1-0.9,3.6,5.9,9,3.2"/>
<path class="st2" d="M384,190.6c1.8,9-2.3,20.7,5.4,12.6c7.7-8.1,7.2-16.2,7.7-21.2"/>
<path class="st2" d="M468.1,210.4c3.4,8.8,4.8,16.2,6.7,21.3c1.8,5.1,2.1,8.8,7.2,6.4c5.1-2.4,5.4-7.1,6.1-10.5
	c0.7-3.4-2-9.9,0-12.7"/>
<path class="st2" d="M572,148.9c2.7,8.5,7.1,8.1,7.8,12.2c0.7,4.1,2,13.3,2.4,18.5c0.3,5.2-1,5.9,0,9.2c1,3.4,2.7,8.4,8.5,5.2
	c5.7-3.2,6.8-8.6,6.4-12c-0.3-3.4-1.9-12.5,0.1-16.2c2-3.7,5.4-8.5,5.4-8.5"/>
<path class="st2" d="M503.1,144.8c3.6,4.4,3.3,5.1,3.9,9.1c0.7,4.1,2.4,7.4,7.8,7.1c5.4-0.3,9.8-2.7,10.5-8.1
	c0.7-5.4,9.8-12.5,9.8-12.5"/>
<path class="st2" d="M253.5,602.5c2-3.8,3.4-7,5-11.7c1.6-4.7,0.2-7.7,3.2-12.4c2.9-4.7,3.4-9.5,7.7-9c4.3,0.5,5.6-2.3,7,2.5
	s0,3.8,1.4,8.6c1.4,4.7,0,9.2,3.4,10.1s7.4,1.8,7.4,1.8"/>
<path class="st2" d="M339.8,573.7c-4.7-2.7-7.7-6.3-7.7-10.6s0.2-12,0-15.6c-0.2-3.6,0.2-8.1,0-11.7c-0.2-3.6-1.4-7-1.8-11.3
	s2.5-9.5-3.4-9.9c0,0-3.4-2-6.5,0c-3.2,2-6.1,7-6.1,7"/>
<path class="st2" d="M315.7,543.7c-0.7-2-3.4-11.6-2.7-15.5c0.7-3.9,0.2-9.3-0.1-14.5c-0.3-5.2-0.7-18.3-4.1-18
	c-3.4,0.2-6.8-3.2-9.5,0c-2.7,3.2-5.6,3.8-5,7.2c0.7,3.4,2.3,5.6,1.4,12c-0.9,6.3-1.8,9.5-1.5,16c0.3,6.5,0.1,9.9-1.5,16.2
	s-4.1,11.8-4.3,13.2"/>
<path class="st2" d="M269.3,741.7c3.6-6.1,2.7-18.8,8.1-20.9c5.4-2,7.4-4.1,9.1-10.1c1.7-6.1-1.7-16.2,6.4-14.9
	c8.1,1.4,14.2,0,15.6,8.1c1.4,8.1-1.7,16.6,2.7,23.7s9.1,10.1,10.1,9.8"/>
<path class="st2" d="M421.9,718.7c1.8-6.8,2.7-17.2,6.8-23c4.1-5.9,9-15.3,13.5-14.9c4.5,0.5,6.3,3.2,7.7,9s4.5,6.3,5.9,13.5
	s-0.9,14.9,0,20.7s-0.5,16.2,3.2,17.6c3.6,1.4,9,8.6,10.4,16.2"/>
<path class="st2" d="M299.3,695.7c3.2-8.6,8.1-12.6,9-23s0.9-22.5,5-37c4.1-14.4,6.8-25.3,12.6-27.1s1.8-5.9,14-6.3
	c12.2-0.5,9,4.5,19.8,0c10.8-4.5,13.5-9.9,13.5-9.9"/>
<path class="st2" d="M431.4,691.6c-7.7-2.7-14.4,0.5-13.1-10.8c1.4-11.3,1.9-18.9-0.2-24.8c-2.1-5.9-6.1-8.6-6.6-12
	c-0.5-3.4-2.7-20.1-2.7-23.2s-3.6-23.4-3.2-39.7s-1.4-23.4-2.7-28.4c-1.4-5-0.5-16.2-3.6-28c-3.2-11.7-12.2-15.8-17.1-13.1
	c-5,2.7-10.8,3.2-9,11.7s-2.3,15.8-3.2,21.6s-3.2,5.4-5,18c-1.8,12.6,2.7,14,0,22.1c-2.7,8.1-5.4,17.1-5.4,17.1"/>
<path class="st2" d="M551.7,645.4c-2.4-2.4-1.7-26-3.4-47c-1.7-21-6.1-4.7-13.5-8.8c-7.4-4.1-6.1,1-8.8,8.1s-2.4,11.5-4.4,13.2
	c-2,1.7-1.5-3.6-1.5-3.6s-1.6-5.4-12.5,0s0.9,15.3-5.6,32.5S487.8,665,485,683.6"/>
<path class="st2" d="M574.3,701.9c-3.7-7.8-4.1-12.6-4.4-18.3c-0.3-5.7,1-7.4-1.7-17.2s2-15.9-4.7-17.6c-6.8-1.7-9.1-5.1-11.8,0
	c-2.7,5.1-2.4,8.8-4.1,17.2c-1.7,8.5-3,8.4-7.1,17.6s-3.6,14.9-3.6,14.9"/>
<path class="st2" d="M655.5,572.7c-5.7,2.7-24.4,9.1-24.7,14.7c-0.3,5.6-5.1,10.6-4.1,13.8s1.7,9.7,2,11.4c0.3,1.7-3,23.3-2.2,27.4
	c0.8,4.1,0.1,5.1-4.3,11.8s0,14.5-12.2,20c-12.2,5.4-10.8,9.1-17.6,5.1c-6.8-4.1-21.6-6.1-21.6-6.1"/>
<path class="st2" d="M684.9,558.5c-2.7-18.6-1.4-17.2-2.4-26s0.7-20.3,0-30.4s2.4-19.3-3-21.3c-5.4-2-11.5,0.3-13.9-4.4
	c-2.4-4.7-1-12.5-4.7-7.4s-4.1,15.2-3.7,23c0.3,7.8,4.2,12.9-0.1,17.2s-6.7,2.7-7,10.8c-0.3,8.1-2,3-5.1,20
	c-3,16.9-5.6,39.9-5.6,39.9"/>
<path class="st2" d="M671.1,607.5c0,0-1,4.1-5.1,5.4c-4.1,1.4-8.1,4.1-10.5,12.7c-2.4,8.6,0,26.2,0,34s-5.1,5.7-7.4,6.4
	c-2.4,0.7-3.7,3-2.7,8c1,4.9-1.7,6.9-5.9,11.3c-4.2,4.4-5.3,1-10.7-1.7"/>
<path class="st2" d="M667.3,646.1c1-8.8,3.7-11.5,3.7-19c0-7.4-2.4-24.4,0-32.5c2.4-8.1,4.7-12.2,7.8-20c3-7.8,5.3-23.3,10.9-25
	c5.6-1.7,15.8-9.5,16.5,7.1c0.7,16.6-1.4,46,0,55.5c1.4,9.5,5.4-3.4,10.8,10.1s7.4,24.6,9.5,36.5c0,0,1.1,6.9,3.3,9.4"/>
<path class="st2" d="M672.2,728.8c1.8-5.6,3.6-7,3.8-12.4c0.2-5.4,0.2-10.1,1.4-15.6s-1.1-13.1,4.7-12.2c5.9,0.9,10.1,4.5,11,7
	s3.6-1.4,5.4,3.2c1.8,4.5,0.9,10.6,2.9,17.6"/>
<path class="st2" d="M110.7,718.7c9-1.3,14-1.8,19.4-5c5.4-3.2,13.8-0.5,16.2-4.5c2.3-4.1,0.5-5.9,5.5-11.3
	c5-5.4,2.3-12.5,10.4-14.4c8.1-1.9,5.4,1.2,18-2.8c12.6-4,8.6-8.2,18-6.8c9.5,1.4,16.7,0,16.7,0"/>
<path class="st2" d="M214.9,680.8c0.5-2.2-0.5-6.3,2.7-13.1c3.2-6.8,4.5-15.8,9-15.8s7.8-7.7,11.1,2.7s1.9,13.9,6.5,19.3
	c4.5,5.5,10.8,6.8,10.8,6.8"/>
<path class="st2" d="M244.2,674c7.2-6.7,0.5-14.8,7.7-15.7c7.2-0.9,11.7-1.8,11.3-5c-0.5-3.2-4.9-9.5,0-17.8
	c4.9-8.4,13.5-16.5,14.9-8.4c1.4,8.1-1.8,15.8,2.3,25.7c4.1,9.9,5,18,10.4,16.7c5.4-1.4,17.6,3.2,17.6,3.2"/>
<path class="st2" d="M45.1,1035.2c0.9-6.3,1.4-11.7,5-14c3.6-2.3,13.1-24.8,14-32c0.9-7.2,4.1-24.8,10.4-35.2s13.1-23.4,13.5-30.7
	s7.7-25.7,15.3-26.2c7.7-0.5,14,6.3,15.3,14.9c1.4,8.6,1.8,26.6,2.3,33.8c0.5,7.2,2.3,13.5,0,18.5c-2.3,5-2.7,5-1.8,10.8
	c0.9,5.9,2.9,18.9,2.9,18.9"/>
<path class="st2" d="M152,1039.3c-5.4-6.8-5.9-4.5-9-16.2c-3.2-11.7-2.7-11.3-4.5-21.2c-1.8-9.9-6.8-12.6-5.4-19.4
	c1.4-6.8,2.2-9-0.2-12.6c-2.5-3.6-11.9-5.4-11.9-5.4"/>
<path class="st2" d="M25.4,412c6.1-0.3,7.1,4.4,12.2,2c5.1-2.4,8.5-10.8,11.8-8.1s3.7,7.1,5.1,8.8c1.4,1.7,11.8,0,11.8,0l7.1-14.2
	c0,0,11.2-8.7,13.5,7.5c2.4,16.2-0.3,50,9.8,50s14.2-5.1,13.5-10.8s0.7-22,2.7-26.4c2-4.4,1-13.9,1.7-20.6
	c0.7-6.8,5.1-10.7,14.5-14.8c9.5-4.1,26.6-9,30.7-16.2c4.1-7.2,20.7-23.9,21.6-28.4c0.9-4.5,5.9-36.5,12.6-42.4
	c6.8-5.9,39.2-25.7,41.5-29.8c2.3-4.1,19.8-31.6,24.8-32.5"/>
<path class="st2" d="M255.1,218.5c2.7,5.9,5.4,16.7,5.4,24.4s0.5,18,7.2,15.8c6.8-2.3,12.6-13.5,13.5-22.5s1.4-22.1,2.7-22.5"/>
<path class="st2" d="M292.3,217.2c0,0,16.9-10.8,22.3-16.2c5.4-5.4,9.5-3.4,16.9-6.1c7.4-2.7,18.9-16.9,23.7-16.9s-2,12.2,7.4,9.5
	s14.9-14.9,16.2-25.7c1.4-10.8,4.1-16.9,9.5-21c5.4-4.1,9.5-6.1,16.9,0c7.4,6.1,1.4,12.9,21.6,4.7s23.7-10.4,31.8-8.6
	s9.5,1.8,15.6-7.7c6.1-9.5,19.6-24.4,27.7-24.4s20.3,5.4,25,9.5c4.7,4.1,8.1,9.5,14.2,5.4c6.1-4.1,4.7-3.4,12.9-2
	c8.1,1.4,15.8,4.7,23.4,3.8c7.7-0.9,20.7,6.3,24.8,9c4.1,2.7,8.1,0.5,9,15.8s18,4.1,24.4,0c6.3-4.1,10.8-4.1,13.5,3.2
	c2.7,7.2,2.7,11.3,8.1,9.5"/>
<path class="st2" d="M657.3,137.8c7.2,9.5-4.1,13.1,6.8,18.9c10.8,5.9,13.8,0.6,14.1,13.1s3,26.4,6.8,24.7c3.7-1.7,6.1-21.3,5.7-24
	c-0.3-2.7,8.5-2.4,12.9,7.1c4.4,9.5,8.5,7.8,11.8,13.2s3,8.1,4.4,13.2c1.4,5.1-0.3,15.2,8.8,15.6c9.1,0.3,15.6,1.7,15.6,1.7"/>
<path class="st2" d="M744.1,214.9c1.4,3.8,0.9,6.1,5.2,16.2c4.3,10.1,6.1,22.1,11.3,27.7c5.2,5.6,12,8.6,16.9,14.4
	c5,5.9,7.7,7.7,7.4,18.9c-0.2,11.3,2.3,27.7,4.3,33.8c2,6.1,1.1,14.4,5.2,14.7c4.1,0.2,8.6,0.7,9.9-3.8c1.4-4.5-1.6-12.6,1.1-16.7
	c2.7-4.1,3.6-6.5,3.6-6.5s10.8,5.6,11.5,14.4c0.7,8.8,1.7,15.2-2,22c-3.7,6.8-11.5,17.2-17.6,19.6c-6.1,2.4-11.2,11.8-9.8,21.3
	c1.4,9.5,1.4,11.5,1,23.3c-0.3,11.8-3.7,14.5-2,24.4s4.1,17.2,8.1,18.6c4.1,1.4,10.5-0.7,8.8,20.6c-1.7,21.3-3.4,20.6-1.4,29.4
	c2,8.8,3,8.5,2.4,18.9s-0.7,14.5-1,20.6c-0.3,6.1-1.7,15.6-2.4,23.3"/>
<path class="st2" d="M689.8,801.6c1.8-5,4.5-9,4.5-14.9s-3.6-12.2,0-15.8c3.6-3.6,4.5-10.4,8.6-12.2c4.1-1.8,10.8-1.8,14.4-5.4
	c3.6-3.6,5-6.8,7.2-16.2c2.3-9.5,3.6-37,4.1-43.7c0.5-6.8-4.1-14.9,0-22.5c4.1-7.7,6.3-17.1,10.4-22.5c4.1-5.4,13.1-18,13.1-25.7
	s-1.8-11.7,4.5-13.5s9.9-1.8,12.6-10.4s4.5-16.7,8.6-23c4.1-6.3,3.2-13.5,8.1-8.6c5,5,11.7,12.6,15.3,19.4s9.9,5.4,12.2,0.9
	c2.3-4.5,7.9-14.4,7.9-14.4"/>
<path class="st2" d="M54.8,709.2c6.3-17.1,2.7-19.8,10.8-47.8c8.1-28,6.3-32.5,9-53.2c2.7-20.7,4.7-60.4,18.6-63.1
	s32.8-15.3,37.3-29.8c4.5-14.4,10.8-26.2,20.7-34.3c9.9-8.1,9.9-30.7,18.9-28.9c9,1.8,5,16,11.7,12c6.8-4.1,16.9-29.8,17.6-38.6
	c0.7-8.8,7.4-41.3,8.1-50.1c0.7-8.8,4.7-16.9,9.5-12.2s12.9-4.1,13.5-16.2c0.7-12.2-2-11.5,0-28.4c2-16.9,8.6-33.8,6.8-41.9
	c-1.8-8.1-1.8-8.1-1.8-8.1"/>
<path class="st2" d="M122.5,782.2c-2.7-18-10.8-54.1-13.5-63.1c-2.7-9-15.7-18-15.7-18"/>
<path class="st2" d="M93.3,545c2.2,23.4-4,41.5,0,55s5.8,25.3,5.8,49.6c0,24.4,3.5,59.5,3.5,59.5"/>
<path class="st2" d="M107.9,849.9c2.9-13.5,1.1-24.4,4.7-34.3c3.6-9.9,0.9-17.1,5.4-25.3c4.5-8.1,6.7-17.1,13.7-12.6
	c7,4.5,6.4,15.3,11.2,28s-5.3,28.9,3.4,37.9c8.6,9,11.3,16.2,11.3,16.2s8.1-3.6,13.5,0"/>
<path class="st2" d="M49.4,917.5c-9.9-3.6-10.8-14.5-8.1-20.3c2.7-5.8,1.9-15.8-1.3-22.1c-3.2-6.3-5-27.1-5.9-34.3
	c-0.9-7.2,5.4-9.3,0-22.7"/>
<path class="st2" d="M24.3,1001.9c4.6-12.2,10-10.4,15.4-14s0-12.6,5.4-18s7.2-16.2,12.6-10.8c5.4,5.4,8.5,17.8,8.5,17.8"/>
<path class="st2" d="M397.6,1154.7c9.9-0.9,17.1-6.3,16.2-15.3s-8.9-18.9,0.1-26.2s15.3-8.1,20.7-12.6c5.4-4.5,18-4.5,15.3-16.2
	c-2.7-11.7-4.7-18.9,0.4-20.7s10.4-5.4,15-13.5c4.5-8.1,9.9-14.4,15.3-10.8s10.8-0.9,18,5.4s13.5,18,9.9,31.6
	c-3.6,13.5-0.6,13.5,1,26.2c1.7,12.6-12.5,17.1,0,34.3c12.5,17.1,12.5,17.1,12.5,17.1"/>
<path class="st2" d="M460.4,972.1c14.4-4.8,22.5-7.5,28-4.8"/>
<path class="st2" d="M474.3,960c-1.4-14.4,4.1-18,8.6-28c4.5-9.9-1.8-25.3,5.4-30.7s13.5-8.1,18,0c4.5,8.1,12.6,10.4,12.6,10.4"/>
<path class="st2" d="M556,966.2c-0.9-7-8.1-18.8-12.6-34.1c-4.5-15.3-3.6-19.8-5.4-27.1c-1.8-7.2-1.8-13.7-4.5-22.6
	c-2.7-8.9-10.8-9.8-14.4-8c-3.6,1.8-9,16.2-9,16.2l-3.6,10.8"/>
<line class="st2" x1="482.3" y1="998.5" x2="502" y2="998.5"/>
<path class="st2" d="M492.1,991c2.4-7.4,10.4-15.9,13.2-24.8c3.6-11.6,12.3-11.1,16.7-14.6c7.7-6.1,10.4,0.9,15.8,7.3
	c5.4,6.4,10.1,10.4,10.1,10.4"/>
<path class="st2" d="M539.6,996c-0.5-9.5-5.9-18,0-20.3c5.9-2.3,10.8-12.2,12.6-15.3c1.8-3.2,5.9,6.5,18,0
	c12.2-6.5,18.3-2.1,23.7-11.1s8.8-18.4,8.8-18.4L598,918l8.8-4.4c0,0,4.7-2,6.1-8.3c1.4-6.3-0.7-19.1,10.1-18.5
	c10.8,0.7,19.6-4.7,21.6,6.8c2,11.5,4.7,38.8,4.1,47.5c-0.7,8.7-6.6,16.1,0.1,23.6c6.7,7.4,13.4,8.1,11.4,18.9s-7.4,12.9,0.4,14.9
	c7.8,2,10.5-5.4,13.8,14.2s3.4,34.5,3.4,34.5"/>
<path class="st2" d="M536.9,833.7c6.8-14.4,9-30.7,11.1-40.6c2-9.9,8.3-23.4,13.8-10.8c5.4,12.6,4.5,18.3,6.3,23.1s-1.8-1.5,1.8,4.8
	c3.6,6.3,4.5,23.4,4.5,23.4"/>
<path class="st2" d="M755.5,782.2c2.8-5.4,16.4-19.8,16.4-19.8s-2.7-9.9,0-20.7c2.7-10.8,9-41.5,16.2-40.6c7.2,0.9,11.7-14.4,15.3-9
	c3.6,5.4-3.6,9,0,21.6c3.6,12.6,4.5,31.6,8.1,41.5c3.6,9.9,16.2,27.1,16.2,27.1"/>
<path class="st2" d="M146.3,818.2c9.5-3.5,35.7-12.8,34.8,0c-0.9,12.8,5.4,27.2,5.4,27.2"/>
<path class="st2" d="M81.9,64.3c2.7,21.6-2.5,36.1,11.4,36.1s22-10.7,23.8-2.6s6.3,19.3,10.8,23.3c5.7,5.1,17,4.1,18.4-8.8
	c1.4-12.9-7.7-19.2,0-30.9c7.7-11.7,16.5-24.4,16.5-24.4"/>
<path class="st2" d="M233.4,57.1c0.7,14,1.3,25.5,9.1,22.8c7.8-2.7,5.1-16.3,12.5-11.2s6.8,3.7,8.8,18.6s-0.9,30.4,5.6,33.1
	c6.5,2.7,14.9-7.4,14.4-15.6c-0.5-8.1,2.5-14.9,0-23.7c-2.5-8.8-3.6-12.9,0-18.9c3.6-6.1,8.3-14.2,8.3-14.2"/>
<path class="st2" d="M200.9,150.7c2,6.9,2.7,13.8,5.4,21.2c2.7,7.4,4.1,11.4,10.8,10.1c6.8-1.4,8.1-8.7,6.8-15.5
	c-1.4-6.8,0.3-13.6,0.5-17.6"/>
<polyline class="st2" points="488.2,79.9 490.5,90.5 498.9,84.5 "/>
<polyline class="st2" points="542.9,210.4 548.6,224.7 559.5,213.6 "/>
<polyline class="st2" points="657.3,244.9 662.2,259 667.3,251.2 "/>
<polyline class="st2" points="609.4,268.6 620.3,284.2 629.7,268.6 "/>
<path class="st2" d="M133.6,251.2c3.1,6.5-1.3,15.1-0.3,21.4c0.9,6.3,0.9,35.2-10.8,41.9c-11.7,6.8-11.7-5.9-14.6-17.6
	c-2.9-11.7-5.2-25.3-5.3-45.8c-0.1-20.5-7.1-15.5-9.3-37.6"/>
<path class="st2" d="M122.5,224.7c4.5,11,1.4,21.7,11.2,26.6c14.8,7.3,23.9-0.8,17.7-17.5c0,0,1.3-10.6,2-16.5
	c0.7-5.9,1.5-13.1,0-15.3"/>
<polyline class="st2" points="373.6,60.7 384,74 403.9,51.7 "/>
<path class="st2" d="M752.9,90.5c4.5,16.2,2.7,31.9,9.9,30.4c7.2-1.6,14.4-4.3,11.7-16"/>
<path class="st2" d="M764,165.6c-0.3,9-7.8,22.5,0,23.9c7.8,1.4,18.6-12.4,18.6-11.9s2.7,3.4,5.4,17.5s0,41.5,8.1,41.3
	c8.1-0.2,11.5,1.9,12.2-6.9c0.7-8.8-4.1-21.6,0-28.4"/>
<path class="st2" d="M782.7,647.5c6.8-11.5,1.7-31.2,9-17.6c7.3,13.5,5.2,17.6,5.2,17.6"/>
<g>
	<g>
		
			<radialGradient id="SVGID_1_" cx="285.9456" cy="942.3364" r="272.6332" gradientTransform="matrix(1 0 0 0.2 0 753.8691)" gradientUnits="userSpaceOnUse">
			<stop  offset="0" style="stop-color:#FFFFFF"/>
			<stop  offset="3.126983e-02" style="stop-color:#FFFFFF"/>
			<stop  offset="0.122" style="stop-color:#F8F8F8;stop-opacity:0.9064"/>
			<stop  offset="0.2585" style="stop-color:#E3E3E3;stop-opacity:0.7654"/>
			<stop  offset="0.4239" style="stop-color:#C2C2C1;stop-opacity:0.5947"/>
			<stop  offset="0.6119" style="stop-color:#939392;stop-opacity:0.4006"/>
			<stop  offset="0.816" style="stop-color:#585857;stop-opacity:0.1899"/>
			<stop  offset="1" style="stop-color:#1D1D1B;stop-opacity:0"/>
		</radialGradient>
		<ellipse class="st4" cx="285.9" cy="942.3" rx="278.9" ry="65.2"/>
		<ellipse class="st5" cx="286" cy="939.9" rx="148" ry="32.5"/>
	</g>
	<g>
		<polygon class="st6" points="505.2,53.1 138,939.9 434,939.9 647.4,112.3 		"/>
		<linearGradient id="SVGID_2_" gradientUnits="userSpaceOnUse" x1="392.7112" y1="53.0706" x2="392.7112" y2="939.9125">
			<stop  offset="0" style="stop-color:#FFFFFF"/>
			<stop  offset="0.6941" style="stop-color:#FFFFFF;stop-opacity:0"/>
		</linearGradient>
		<polygon class="st7" points="505.2,53.1 138,939.9 434,939.9 647.4,112.3 		"/>
		<path class="st8" d="M520.2,60.3c-14.2-3.4-21-11.5-14.9-12.9c6.1-1.4,16.7,2,27-2.7c10.3-4.7,19.7-11.5,25.1-8.1
			c5.4,3.4,8.1,4.1,15.6,4.1c7.4,0,22.3,7.3,22.3,7.3h10.8c0,0,10.8-1.2,11.5,6.9c0.7,8.1,10.1,5.4,13.5,5.4s10.8,6.8,8.1,15.6
			S635,88,639.9,95.4c4.8,7.4,15.7,16.9,7.5,16.9c-8.1,0-31.8-2.7-36.5-7.4c-4.7-4.7,1.4-10.1,1.4-10.1l-16.2,5.4
			c0,0-13.5-6.8-22.3-12.2c-8.8-5.4-21.6-14-21.6-14h-16.2l-7.4-12.4L520.2,60.3z"/>
		<g>
			<line class="st9" x1="566.8" y1="40.3" x2="557" y2="62.7"/>
			<line class="st9" x1="588.9" y1="45.1" x2="576.1" y2="74.3"/>
			<line class="st9" x1="634.3" y1="61.5" x2="625.1" y2="82.5"/>
			<line class="st9" x1="600.9" y1="48" x2="592.4" y2="67.4"/>
			<line class="st9" x1="623.1" y1="60.6" x2="618" y2="72.3"/>
			<line class="st9" x1="579.1" y1="41.6" x2="572.1" y2="57.5"/>
			<line class="st9" x1="558.2" y1="37" x2="552.9" y2="49.2"/>
			<line class="st9" x1="615.2" y1="50.1" x2="602.2" y2="81.1"/>
		</g>
		<linearGradient id="SVGID_3_" gradientUnits="userSpaceOnUse" x1="572.4534" y1="91.7546" x2="591.0032" y2="40.7894">
			<stop  offset="0" style="stop-color:#FFFFFF;stop-opacity:0"/>
			<stop  offset="1" style="stop-color:#FFFFFF"/>
		</linearGradient>
		<path class="st10" d="M520.2,60.3c-14.2-3.4-21-11.5-14.9-12.9c6.1-1.4,16.7,2,27-2.7c10.3-4.7,19.7-11.5,25.1-8.1
			c5.4,3.4,8.1,4.1,15.6,4.1c7.4,0,22.3,7.3,22.3,7.3h10.8c0,0,10.8-1.2,11.5,6.9c0.7,8.1,10.1,5.4,13.5,5.4s10.8,6.8,8.1,15.6
			S635,88,639.9,95.4c4.8,7.4,15.7,16.9,7.5,16.9c-8.1,0-31.8-2.7-36.5-7.4c-4.7-4.7,1.4-10.1,1.4-10.1l-16.2,5.4
			c0,0-13.5-6.8-22.3-12.2c-8.8-5.4-21.6-14-21.6-14h-16.2l-7.4-12.4L520.2,60.3z"/>
	</g>
</g>
</svg>
