<svg xmlns="http://www.w3.org/2000/svg" data-name="Calque 1" viewBox="0 0 480 320">
  <defs/>
  <path d="M85.77 280l-.69-.95-21.48 2.67c-28.76-44.31-14.6-88.79 43.3-135.93 2.25-1.83 4.62-3.7 7-5.62 16.62-13.15 35.46-28 40.93-48.06 8-29.38-15.13-54.52-33.73-74.71l-3.94-4.29-.42-.47-.62-.14c-1-.21-1.43-.33-2.34-.56l-6.62-1.72 4.65 5 3 3.17c19.37 20.8 45.9 49.29 31.11 79-8.26 16.61-25.44 29.61-40.59 41.12-2.85 2.16-5.54 4.2-8.16 6.26-21.31 16.69-36.32 32.81-47.23 50.73-11 18.13-14.81 35.45-11.51 52.95 2.92 15.5 11.5 31.2 26.23 48l.72.81 31.15-4.52L94 290a99.33 99.33 0 01-8.23-10z"/>
  <path d="M152.43 53.34l.52.88.85.07c4.33 8.34 5.89 12.52 6.93 20.85l.2 1.64 1.66.1 1.23.07 2.36.12-.28-2.34c-1.06-9.15-2.82-13.81-7.57-23.15l-.06-.11c-6.83-11.58-15.17-22-21.67-29.72l-.54-.63-.82-.08c-1.12-.09-1.68-.15-2.76-.27l-5-.55 3.28 3.84c6.51 7.63 14.87 17.84 21.67 29.28zM169.28 130.85l1.3-2.1c5.81-9.48 9-16.38 9.72-21.07.63-4 .19-7-1.29-8.64a3.89 3.89 0 00-3.13-1.3l-1.43.07c-2.72.14-4.95 2.73-9.84 8.42l-.46.54c-1.84 2.13-4.1 4.69-6.5 7.39-3.71 4.19-7.92 8.93-11.69 13.42-2.71 3.13-5.45 6.24-8.18 9.34-6.4 7.28-13 14.81-19.28 22.49l-2.67 3.27H126.34l.6-.81c5.69-7.72 12-15.23 18.09-22.49 2.6-3.1 5.21-6.2 7.79-9.34a176.91 176.91 0 0112.73-14.59l.45-.45a46.88 46.88 0 015.32-4.9 13.73 13.73 0 01-.65 2.79c-1.14 3.51-3.82 8.61-7.34 14-7.78 11.83-16.78 25.76-25.45 40.73a9.09 9.09 0 00-1.51-2.24 8.14 8.14 0 00-6.22-2.75h-.94c-4.22 0-8.76 2.19-14.29 6.79-7.92 6.58-13.23 15.33-18.31 23.75l-.42.7-.11.21c-7.81 17.21-15 37.73-8.81 59.35A57.67 57.67 0 00105 281.78c6.57 5.73 12.51 8.81 16.94 8.81a8.59 8.59 0 001.26-.09l.7-.1c2.95-.44 4.78-2.62 5.45-6.49a22.37 22.37 0 00.32-3.44c1.11 1.73 2.34 3.52 4 5.79l.71 1 10-1.44-1.55-2.58c-33.36-55.37-4.31-102.5 26.45-152.39zm-51 125.47c1.61 7 2.88 12.47 2.65 16.1-.2 3.18-.74 4.85-1.6 5l-1 .13c-1.24.16-4.36-1.18-9.12-5.46a39.36 39.36 0 01-11.31-19.16c-3.63-20.17-1.26-36.5 8.43-58.14 3.69-7.32 8.5-13.8 13.19-17.8s7-4.58 7.93-4.59h1.11a2.87 2.87 0 012.86 1.82c.38.74.48 3.13-3.1 10.87-10.18 21.92-15.86 42.12-10.51 69.47z"/>
  <path d="M173.8 147.72l.74-1.66c2.12-4.73 4.57-9.44 7.18-14.44 6-11.47 12.16-23.34 14-35.63 4-26.1-11.47-50.3-25.1-71.66-1.78-2.78-3.52-5.52-5.19-8.2l-.6-1h-1.16l-3.69.09-3.57.08 1.93 3c1.63 2.53 3.33 5.1 5.06 7.73 13.79 20.9 29.43 44.59 25.23 69.59-2 11.94-8.6 23.64-15 34.95-2.59 4.59-5.26 9.34-7.52 13.94-22 44.76-42.7 87-14.43 138.83l.66 1.22 10-1.44-1.31-2.5c-25.12-48.05-7.56-87.37 12.77-132.9z"/>
  <path d="M210.47 141.73c1.26-5.93 2.56-12.06 3.77-18l.58-2.75c1.48-6.92 2.87-13.45 2.54-18.1-.27-3.85-1.27-6.5-3-7.88a4.26 4.26 0 00-3.34-1l-.52.07c-2.12.29-3.78 2.35-5.95 5.82l-.63 1c4.8-28.53-8.51-52.72-22.5-78.15q-1.95-3.53-3.89-7.09l-.6-1.1-1.25.06-3.86.18-3.27.14 1.62 2.84c1.82 3.21 3.73 6.43 5.74 9.83 11.59 19.57 24.72 41.75 23.22 64.39-.77 11.64-6.07 23.65-11.2 35.26-2.45 5.53-5 11.26-6.9 16.74-1.42 4.06-2.85 8-4.26 12-15.16 42.34-28.25 78.9-6.9 124.57l.63 1.34 9.06-1.31-1.27-2.49c-1.16-2.28-2.07-4.15-2.85-5.9a50.25 50.25 0 004.59 3.94c4.31 3.27 7.74 4.66 10.48 4.25l.91-.13c5.7-.85 7-6.57 7.55-11.46.65-6.21-.33-14.93-1.48-25-1.7-32.94 5.76-68.08 12.98-102.07zM167.9 242.84c-1.55-36.11 11.71-72.29 24.53-107.27l3.11-8.51a73.33 73.33 0 017.94-14.38c1.31-1.86 4-5.6 5.05-6.39a8.78 8.78 0 01.36 2.93c0 3-.77 7.69-2.33 14.11-1.17 5-2.39 10-3.62 15-8.55 35.18-17.4 71.57-15.39 106.28v.13c1 7.89 1.44 14 .6 17.89-1.08 5-2.49 5.22-3 5.28l-.71.09c-1.26.16-4.25-1.39-8.5-6.29a35.08 35.08 0 01-8.04-18.87zM247.45 135.52c-.54-5.25-1.09-10.67-1.56-16.17 0-1-.07-2-.11-3-.26-7.24-.48-13.49-2-17.94-2.56-7.65-6.2-8.28-8.14-8l-1.64.25c-3.12.48-5.15 3.64-8 9.68a75.12 75.12 0 00-7 21.71c-1 7.47-1.32 15.06-1.64 22.4-.2 4.72-.42 9.59-.8 14.36l-.18 2.21 9.46-.24.09-1.86c.24-5 .28-10 .32-14.94.06-7.22.13-14.69.84-22a41.69 41.69 0 014.1-14.59c2.19-4.18 3.08-4.93 3.27-5l1-.15a8.75 8.75 0 011.29 3.32c.86 3.53 1 9.28 1.06 14.52.34 6.5.91 13 1.47 19.35.74 8.51 1.51 17.26 1.71 26a17.87 17.87 0 00-2.4-2 12.47 12.47 0 00-7.28-2.5h-.88c-4.23.09-7.8 2.47-11.23 7.48-3.7 5.39-6.74 13.54-8.57 23a227.6 227.6 0 00-3.29 51.59c1.14 12.47 5.2 20.07 8.4 24.25 3.85 5 7.83 7.56 11.86 7.56a9.73 9.73 0 001.43-.11l.7-.1c2.6-.39 5-2 7.31-4.94a31.3 31.3 0 002.42-3.6c.15 1.13.32 2.33.53 3.77l.29 2 9.65-1.4-.2-1.91c-2.55-25-2.62-51-.22-81.6 1.36-17.92-.3-34.17-2.06-51.4zm-10.34 108.09c0 6.64-.83 11.43-2.6 14.64-1.67 3-3.23 4.65-4.64 4.84l-1 .12c-1.45.19-3.5-1.29-5.79-4.15-2.81-3.51-4.68-9.22-5.26-16a247.3 247.3 0 013-51.86c1.22-6.83 3.31-12.53 5.9-16.06 2-2.78 3.78-4.2 5.16-4.22H233.09a6.79 6.79 0 014.68 2.3c1.1 1.07 2.32 3.71 1.89 10.25-2.75 23.25-3.58 42.37-2.55 60.14z"/>
  <path d="M273.92 253.05c-1.86-3.2-2.79-8.44-2.7-15.15s.34-13.47.58-20.11c.66-18.21 1.34-37-.95-54.93-1.2-9.36-3.23-18.45-5.19-27.23-2.59-11.56-5.25-23.49-5.94-35.93l4.84-.7 1.87-.27-.16-1.88c-.26-3.2-.46-4.74-.92-7.76l-.3-2-2 .28c-1.8.25-3 .42-4.41.64-2.2-12.5-5.53-24.81-8.75-36.73-2.05-7.58-4.17-15.41-6-23.2l-.5-2.15-2.1.71-3.15 1.09-1.73.6.45 1.78c1.6 6.35 3.38 12.72 5.1 18.89 3.63 13 7.38 26.44 9.61 40.06l-3.52.54.15 1.85a71.62 71.62 0 01.26 7.53v2.36l3.92-.6c.42 12.54 2.75 24.49 5 36.07 1.68 8.6 3.42 17.5 4.35 26.56 1.68 16.3.94 33.48.23 50.1-.35 8.18-.72 16.65-.78 24.84 0 9.57 1.56 17.41 4.6 22.68 2.44 4.23 5.81 6.36 10 6.36a15.8 15.8 0 004.25-.63l1.32-.37.13-1.36c.27-2.8.4-4.2.63-7l.23-2.84-2.75.75c-1.74.54-3.71.53-5.67-2.85zM310.45 136.34c-4-7.63-8.18-15.52-11.63-23.54-1.16-2.7-2.22-5.29-3.22-7.71-1.87-4.55-3.49-8.47-5.08-11.68-2.13-4.31-5.5-10-10.11-9.44l-.51.06c-2.43.29-3.59 2.78-4.29 5.2-.09-.51-.2-1-.31-1.6l-.37-1.83-1.85.24-3.32.45-2 .27.29 2c2.21 15.22 6.88 29.69 11.4 43.69 4.16 12.89 8.46 26.21 10.73 39.89 4.4 26.46 4.07 56.67-1 89.8l-.41 2.67 9.86-1.44.27-1.4c9.74-51.57.47-93.91-17.66-145.49a38.58 38.58 0 01-1.19-15.39c.58-4 1.2-5.17 1.44-5.51.09 0 1.07.4 3.14 3.88s4.4 9.17 6.82 15.2c3.28 8.16 7.26 16.11 11.12 23.79 3.1 6.19 6.31 12.59 9.1 19l.54 1.23 9.31-.16-1.29-2.79c-3.03-6.58-6.46-13.09-9.78-19.39z"/>
  <path d="M328.35 110.58l-2.28-3.43c-5-7.51-8.95-13.44-12.48-17.59C308.85 84 306 81.83 303.35 82l-1.46.08c-4.69.27-4.51 7-4.45 9.59.1 3.78 1 11.69 6.06 22.22 2.44 4.59 4.94 9.15 7.35 13.56 18 32.87 35 63.91 31.13 103.94-1.64 9.38-2.33 15.23-1.25 19.24.75 2.81 2.3 6.37 7.06 6.37a10.94 10.94 0 001.65-.13l2.77-.41c4.14-.62 9.54-3.32 15.61-7.81 7.46-5.51 12.26-12.07 14.23-19.46 10.35-35.5-17.75-71.72-40.32-100.82-4.9-6.37-9.52-12.32-13.38-17.79zM306 93.32h.49c.27.11 1.37.7 4.24 4.23A180.63 180.63 0 01321.24 113c3.83 5.71 8.25 11.72 12.94 18.09 20.83 28.33 46.76 63.59 37.52 97.57a24.78 24.78 0 01-8 12.88c-4.61 3.92-7.14 4.6-8 4.71l-2.14.28c-.73.09-1.41.18-2.17-2.28-.71-2.3-.12-6.6 1.06-12.79v-.15c4.5-40.36-13.54-71.37-32.64-104.19-2.93-5-6-10.26-8.86-15.41-4.14-7.94-4.94-12.82-5.05-15a12.8 12.8 0 01.1-3.39z"/>
  <path d="M432.76 203.46c-1.61-6.54-6-13-13.12-19.06-5.46-4.7-11.82-9.64-20-15.53-6.75-4.86-13.73-10.18-20.74-15.81a145.57 145.57 0 01-19.64-19.31c-5.9-6.82-12.8-14.92-19.24-23.17-6.23-8-8.48-12.87-9.26-15.06-.28-.76-.47-1.36-.6-1.84A57.38 57.38 0 01335 98c3.27 3.11 7.66 7.71 14.69 15.39 7.26 7.75 14.76 15.49 22 23 5.8 6 11.79 12.16 17.61 18.3l.58.61h.84l4.67.08 4.83.08-3.36-3.47c-6.46-6.68-13.17-13.3-19.66-19.7-7.19-7.1-14.62-14.43-21.71-21.84l-3.88-4.07c-5.21-5.46-10.59-11.11-16.09-16.42-6.09-5.88-8.61-7.72-10.79-7.87l-1-.07a3.1 3.1 0 00-2.7 1.14c-1.16 1.44-1.12 3.89.12 8.2 1 3.45 3.84 10.81 11.66 21.38 6.31 8.51 12.91 16.57 19.08 24a151.53 151.53 0 0020.54 21.16c7.61 6.37 14.33 11.76 20.55 16.49 7.39 5.62 13.4 10.3 18.7 14.89 5.85 5 9.44 10.37 10.67 15.8 1.78 7.89 1.85 11.57-1.19 19.26-1.77 4.5-5.22 8.44-10.23 11.71-5.69 3.72-8.41 4.29-9.1 4.38l-2.62.34h-.52a1.84 1.84 0 01-.32 0 2.76 2.76 0 01-.24-1.32c-.07-1.54.9-4.42 2.13-8.06.39-1.16.81-2.41 1.25-3.77 4.43-14.2.54-26.4-4.61-39.74l-.51-1.32-9.94.29.95 2.6c4.65 12.74 8.18 24.36 4.3 37.49-.86 2.83-1.74 5.37-2.52 7.62-1.38 4-2.47 7.15-2.65 9.55-.12 1.68-.08 3.8 1.41 5.18a5.14 5.14 0 003.61 1.21 11.46 11.46 0 001.84-.16l3-.44c3.89-.58 10.07-3.11 17-6.94 9.21-5.12 15.28-11.06 18-17.67 3.61-8.64 3.49-13.23 1.37-21.83z"/>
</svg>
