<svg xmlns="http://www.w3.org/2000/svg" data-name="Calque 1" viewBox="0 0 1020 760">
  <defs/>
  <path d="M841.26 614.2h7.32v12.81h-7.32z"/>
  <path d="M954.93 667.66v-5h-46.45v-18.01h26.91a3.71 3.71 0 002.54-.71 2.31 2.31 0 00.77-1.77 2.39 2.39 0 00-.77-1.83 3.71 3.71 0 00-2.54-.71h-26.91V625a3.71 3.71 0 00-.71-2.54 2.38 2.38 0 00-1.83-.77 2.31 2.31 0 00-1.77.77 3.71 3.71 0 00-.71 2.54v14.63h-9.14a3.71 3.71 0 00-2.54.71 2.31 2.31 0 00-.77 1.77 2.38 2.38 0 00.77 1.83 3.71 3.71 0 002.54.71h9.14v18.05h-54.71v-23.07h-19.41a3.81 3.81 0 00-2.6.71 2.39 2.39 0 00-.77 1.83 2.27 2.27 0 00.8 1.77 3.83 3.83 0 002.57.71h14.46v18.05h-50.93V653q0-5.84-5.26-10.47T773 637.86q-4.72 0-13.93 2.48-5.85 1.53-6.67 2.42a2.17 2.17 0 00-.59 1.59 2.46 2.46 0 00.68 1.77 2.13 2.13 0 001.62.71 10.82 10.82 0 002.42-.59q10.46-3.36 16.23-3.36 7.56 0 11.33 3a8.87 8.87 0 013.78 7.08v8q-4.67-.94-8.68-1.39a69.24 69.24 0 00-7.43-.44c-6.84 0-12.34 1.19-16.53 3.53h-60.1v-4.06Q706.41 648.54 711 646t7.82-2.6a6.73 6.73 0 013 .77 15.22 15.22 0 013.6 2.83 8.7 8.7 0 001.53 1.33 2.22 2.22 0 001 .21 2.56 2.56 0 001.86-.74 2.52 2.52 0 00.73-1.86c0-1-1.27-2.53-3.8-4.51a13.09 13.09 0 00-8.24-3 19.46 19.46 0 00-8.88 2.51q-4.8 2.51-14.49 11.25v-12.56H681a3.69 3.69 0 00-2.57.71 2.35 2.35 0 00-.74 1.77 2.38 2.38 0 00.77 1.83 3.71 3.71 0 002.54.71h9.15v18.05h-71.8v-18.05h26.91a3.71 3.71 0 002.54-.71 2.31 2.31 0 00.77-1.77 2.39 2.39 0 00-.77-1.83 3.71 3.71 0 00-2.54-.71h-26.91V625a3.66 3.66 0 00-.71-2.54 2.38 2.38 0 00-1.83-.77 2.34 2.34 0 00-1.77.77 3.71 3.71 0 00-.7 2.54v14.63h-9.15a3.71 3.71 0 00-2.54.71 2.31 2.31 0 00-.77 1.77 2.38 2.38 0 00.77 1.83 3.71 3.71 0 002.54.71h9.15v18.05h-63.27v-4.06q11.26-10.1 15.85-12.69t7.82-2.6a6.76 6.76 0 013 .77 15.22 15.22 0 013.6 2.83 8 8 0 001.53 1.33 2.17 2.17 0 001 .21 2.53 2.53 0 002.6-2.6c0-1-1.27-2.53-3.81-4.51a13.06 13.06 0 00-8.23-3 19.43 19.43 0 00-8.88 2.51q-4.81 2.51-14.49 11.25v-12.51H536a3.66 3.66 0 00-2.56.71 2.32 2.32 0 00-.74 1.77 2.38 2.38 0 00.77 1.83 3.68 3.68 0 002.53.71h9.15v18.05h-34.09a26.13 26.13 0 00-8-16.81 27.91 27.91 0 00-39.21 0 26.29 26.29 0 00-8 16.78h-15.64a26.1 26.1 0 00-3.36-11.88 24.09 24.09 0 00-9.59-9.53 27.45 27.45 0 00-13.52-3.43 25 25 0 00-12 2.72 32.1 32.1 0 00-9.5 8.08v-9h-11.61a3.72 3.72 0 00-2.54.71 2.3 2.3 0 00-.76 1.77 2.37 2.37 0 00.76 1.83 3.72 3.72 0 002.54.71h6.67v18.05H366a26.17 26.17 0 00-8-16.81 27.92 27.92 0 00-39.22 0 26.28 26.28 0 00-8 16.78h-55.09v-18.02h26.92a3.68 3.68 0 002.53-.71 2.31 2.31 0 00.77-1.77 2.39 2.39 0 00-.77-1.83 3.68 3.68 0 00-2.53-.71h-26.92V625a3.71 3.71 0 00-.7-2.54 2.41 2.41 0 00-1.83-.77 2.31 2.31 0 00-1.77.77 3.66 3.66 0 00-.71 2.54v14.63h-9.15a3.71 3.71 0 00-2.54.71 2.31 2.31 0 00-.77 1.77 2.38 2.38 0 00.77 1.83 3.71 3.71 0 002.54.71h9.15v18.05h-35.41v-23.07h-14.11a3.72 3.72 0 00-2.54.71 2.3 2.3 0 00-.76 1.77 2.37 2.37 0 00.76 1.83 3.72 3.72 0 002.54.71h9.15v18.05h-32.93v-23.07h-11.63a3.72 3.72 0 00-2.54.71 2.3 2.3 0 00-.76 1.77 2.37 2.37 0 00.76 1.83 3.72 3.72 0 002.54.71h6.67v18.05h-32.34V653q0-5.84-5.25-10.47t-14.64-4.64q-4.72 0-13.93 2.48c-3.89 1-6.12 1.83-6.67 2.42a2.17 2.17 0 00-.59 1.59 2.46 2.46 0 00.68 1.77 2.15 2.15 0 001.63.71 11 11 0 002.42-.59q10.44-3.36 16.22-3.36 7.56 0 11.34 3a8.88 8.88 0 013.77 7.08v8q-4.67-.94-8.67-1.39a69.57 69.57 0 00-7.44-.44c-6.84 0-12.33 1.19-16.52 3.53H84.54v5h12a14.6 14.6 0 00-3.54 9.42 14.36 14.36 0 005 11.07q5 4.5 13.93 4.51 12.27 0 23.07-9.09v7.14h11.63a3.78 3.78 0 002.6-.71 2.48 2.48 0 000-3.57 4 4 0 00-2.6-.67h-6.61v-18.13h32.34v9a17.09 17.09 0 004.9 12.1q3.78 3.94 11 4 11.79 0 21.95-9.21v7.26h9.15A3.67 3.67 0 00222 690a2.48 2.48 0 000-3.57 3.84 3.84 0 00-2.54-.67h-4.19v-18.1h35.41v10a13.3 13.3 0 005.13 11q5.13 4.07 13.81 4.07a47 47 0 0014-2.27q7.29-2.28 9.18-4.22a2.31 2.31 0 00.76-1.66 2.46 2.46 0 00-.7-1.74 2.25 2.25 0 00-1.66-.73 3.82 3.82 0 00-1.94.76 37.16 37.16 0 01-9.09 3.4 43.91 43.91 0 01-10.86 1.5q-6.67 0-10.12-2.89a9 9 0 01-3.46-7.2v-10h55.1a26.25 26.25 0 008 17 27.92 27.92 0 0039.22 0 26.09 26.09 0 008-17h21.25v40.9h-6.67a3.84 3.84 0 00-2.54.68 2.31 2.31 0 00-.76 1.8 2.28 2.28 0 00.76 1.8 3.79 3.79 0 002.54.68h23.67a3.67 3.67 0 002.54-.71 2.48 2.48 0 000-3.57 3.84 3.84 0 00-2.54-.68h-12V678.7q8.26 10.8 21.54 10.8a25.64 25.64 0 0018.8-7.58 24.73 24.73 0 007.36-14.26h15.91a26.21 26.21 0 008 17 27.91 27.91 0 0039.21 0 26.09 26.09 0 008-17h34V686h-12a3.82 3.82 0 00-2.57.68 2.18 2.18 0 00-.73 1.68 2.21 2.21 0 00.76 1.74 3.77 3.77 0 002.54.68H572a3.76 3.76 0 002.6-.71 2.45 2.45 0 000-3.57 3.94 3.94 0 00-2.6-.67h-21.93v-18.17h63.27v10a13.3 13.3 0 005.13 11q5.13 4.07 13.81 4.07a47 47 0 0014-2.27q7.29-2.28 9.17-4.22a2.28 2.28 0 00.77-1.66 2.43 2.43 0 00-.71-1.74 2.21 2.21 0 00-1.65-.73 3.88 3.88 0 00-2 .76 36.91 36.91 0 01-9.08 3.4 43.91 43.91 0 01-10.86 1.5q-6.67 0-10.13-2.89a9 9 0 01-3.45-7.2v-10h71.83V686h-12a3.81 3.81 0 00-2.57.68 2.19 2.19 0 00-.74 1.68 2.22 2.22 0 00.77 1.74 3.77 3.77 0 002.54.68h38.89a3.73 3.73 0 002.59-.71 2.45 2.45 0 000-3.57 3.91 3.91 0 00-2.59-.67h-22v-18.17h54.24a14.64 14.64 0 00-3.47 9.45 14.32 14.32 0 005 11.07q5 4.5 13.92 4.51 12.29 0 23.08-9.09v7.14h11.63a3.75 3.75 0 002.59-.71 2.45 2.45 0 000-3.57 3.93 3.93 0 00-2.59-.67h-6.61v-18.13h50.95v18.13h-19.48a3.83 3.83 0 00-2.54.67 2.48 2.48 0 000 3.57 3.66 3.66 0 002.54.71h43.91a3.76 3.76 0 002.6-.71 2.48 2.48 0 000-3.57 3.94 3.94 0 00-2.6-.67h-19.48v-18.13h54.71v10a13.28 13.28 0 005.14 11q5.13 4.07 13.81 4.07a47 47 0 0014-2.27q7.29-2.28 9.18-4.22a2.32 2.32 0 00.77-1.66 2.47 2.47 0 00-.71-1.74 2.21 2.21 0 00-1.65-.73 3.88 3.88 0 00-2 .76 36.84 36.84 0 01-9.09 3.4 43.78 43.78 0 01-10.86 1.5q-6.66 0-10.12-2.89a9 9 0 01-3.45-7.2v-10zM135.06 677a42.85 42.85 0 01-11.36 8.17 27.85 27.85 0 01-12 2.57q-6.72 0-10.24-3.07a9.63 9.63 0 01-3.46-7.56q0-4.85 4.6-8.32a17.45 17.45 0 011.67-1.13h30.79zm75.25-.35q-10.09 11.08-22.19 11.09a10.28 10.28 0 01-7.67-3.13 10.87 10.87 0 01-3.07-8v-9h32.93zm112-27.18a23 23 0 0132.17 0A21.34 21.34 0 01361 662.7h-45.19a21.38 21.38 0 016.48-13.24zm32.17 31.69a22.91 22.91 0 01-32.17 0 21.46 21.46 0 01-6.52-13.46H361a21.44 21.44 0 01-6.54 13.45zm112.9-31.69a23 23 0 0132.16 0A21.29 21.29 0 01506 662.7h-45.13a21.39 21.39 0 016.49-13.24zm-68.87-.47a22 22 0 0130.49 0 19.78 19.78 0 016.18 13.71H392.3a19.79 19.79 0 016.21-13.71zM429 678.38a22 22 0 01-30.46 0 20 20 0 01-5.88-10.69h42.22a19.89 19.89 0 01-5.88 10.69zm70.55 2.77a22.9 22.9 0 01-32.16 0 21.46 21.46 0 01-6.52-13.46h45.21a21.45 21.45 0 01-6.56 13.46zm288.3-4.15a43 43 0 01-11.36 8.17 27.85 27.85 0 01-12 2.57q-6.74 0-10.24-3.07a9.63 9.63 0 01-3.51-7.55q0-4.85 4.6-8.32a17.31 17.31 0 011.66-1.13h30.8zM110.25 590.86l47.18-.24-4.07-6.74c-41.55-68.67-45.36-127.2-12-184.21 29.64-50.61 85.41-93.41 139.34-134.8 25.31-19.43 51.49-39.51 74.56-60.18a363.64 363.64 0 0028.79-32.2c3-3.64 5.77-7.07 8.46-10.16 8.09-9.3 13.21-14.24 17-13.76l2 .25c5.17.64 10.46 5.69 14.52 13.86 3.8 7.67 6.11 20.67-4.47 39.1-14.16 19.38-29.58 38.79-44.48 57.56-75.8 95.45-154.17 194.14-99 327.88l1.15 2.78 43.22-.23-2.12-5.93C275 456.75 348.77 351.16 420.11 249c8.41-12 17.1-24.47 25.46-36.77 3.73-5.82 7.08-11.31 10.32-16.61 6.12-10 11.4-18.69 17.26-26.34 8.82-11.51 14.52-16.21 19.63-16.21h2.44c6.55 0 13.23 4.32 19.31 12.39 7.21 9.56 8.92 23.23 4.82 38.51-10.25 29.41-16.82 59.72-23.17 89-5.35 24.7-10.88 50.24-18.58 75-24.17 77.6-40.58 138.6-31.68 217.14l.46 4 42.54-.21-.18-4.62c-3.05-76.66 14.08-144.13 30.65-209.38 6.87-27.06 10.37-54.76 13.75-81.54 3.63-28.71 7.38-58.4 15.3-87.15l.06-.25c6.2-29.17-2.47-49-10.83-60.54-10.21-14.09-23.22-21.6-37.61-21.74h-3.46c-9.42 0-18 4.78-26.29 14.6-5.29 6.3-10 13.66-15.19 22a54.47 54.47 0 00-12.12-25.1c-7.9-9.15-17-14.55-26.24-15.64l-2.59-.31c-9.74-1.22-16.64 5.42-21 10.51a110.49 110.49 0 00-6.69 8.86 115.14 115.14 0 00-.46-17.94l-.28-3.17-3.08-.78A124 124 0 01370.1 113l-6.5-2.26.58 6.85c5.82 68.8-64.67 108.33-126.86 143.2-21.23 11.89-41.27 23.13-57.14 34.88-52.31 38.74-87.18 78.71-103.7 118.8-25.95 63.06-5.8 115.3 32.44 174.34zM592.94 572.5c15.91 10.85 39.89 18.18 58.66 18.18 1.33 0 2.64 0 3.91-.11l17.6-.16c22.83-.37 48-5.34 77-15.21 30.84-10.49 50.06-26 57.21-46.2 23.42-77.61-15.07-154.35-52.3-228.57-16.5-32.9-32.09-64-41.71-94-3.1-11.07-12.15-39-29.36-59.19-12.59-14.79-24.56-21.94-37.66-22.52-3.61-.16-5.43-.23-9.11-.35-13.75-.47-25.51 6.48-34.94 20.66-8.86 13.34-12.3 32.41-15 58.82-3.47 31.54-1.38 61.64.65 90.75 1.26 18.09 2.56 36.81 2.54 55.87 0 39-7.12 79-14 117.72-2.59 14.63-5.27 29.75-7.52 44.51-4.56 20.43 6.37 47.75 24.03 59.8zm25.34-368.19c.26-19.9 2.61-32.21 7.63-39.91S635.84 153 641 153h.31l6.68.22c5.46.2 11.65 4.47 18.92 13.05 7.77 9.16 13.81 22.91 18 40.9 8.73 36.23 22.15 70.7 35.13 104 27 69.41 52.56 135 37.42 212.93-3.8 13.38-14.56 23.76-32 30.85-17.23 7-32.12 10.39-45.5 10.13l-13.67-.2a59 59 0 01-35.72-12.21c-10.41-7.7-14.26-19.75-11.42-35.87l1.85-11.68c8-49.71 16.35-101.1 12.27-150.87-1.58-19.33-4.39-38.17-7.1-56.38-4.67-31.4-9.08-61.05-7.89-93.56zM733 105.4l5.34 2.08.72-5.69c2.27-18.17 13.65-40.32 27.66-53.86l5-4.8-6.41-2.56a165.7 165.7 0 00-15.79-5.49l-2.69-.82-1.9 2.08c-14.35 15.66-25.39 39.8-27.54 60.19l-.39 3.74 3.62 1A114.44 114.44 0 01733 105.4z"/>
  <path d="M740.1 141.78l-2.16-.75a131.21 131.21 0 00-13.28-3.93l-7.35-1.85 1.94 7.32c17.9 67.72 53.52 121.84 91.23 179.14 13.63 20.71 27.72 42.12 40.73 64 39.86 67.09 66.7 137-6.18 193.37l-10.42 8.06 51.39-.24 1.09-.7c29.71-19.14 46.69-41.13 51.9-67.22 8.81-44.15-19-92.14-47.42-133.25-14.38-20.82-30-41.33-45.06-61.17-42-55.18-85.33-112.24-105.71-180.59z"/>
</svg>
