<svg id="Calque_1" data-name="Calque 1" xmlns="http://www.w3.org/2000/svg" viewBox="0 0 180 250"><title>falling_man</title><path d="M18,208.81l1-6-10-5,6-6-6-25,6,6,4.5-14.5,10,13,3-4,15,9s-13-31-15-41-8-28-9-36-6-23,1-19,12,11,12,18,15,56,19,61,9,16,9,16l9-2v-24c0-5-2-50-2-53s-1-14-1-19,5-11,6-10,6,11,6,17,3,53,5,61,7,17,8,23,7,10,11,9,8-7,10-6c0,0-10-22-11-31s-4-35-4-44-1-27-1-27l-8-33c2.57-3,12.58,2.63,13.54,10.06s4.7,7.73,7.46,12.94c0,0,1,47,3,55s14,40,14,40,6-46,9-59,16-49,16-49l-7-32c2.46-1.93,13.85,5.53,15.17,13.52s5.64,10.79,5.83,15.48c0,0-13,44-14,47s-6,31-5,33,4,35,6,41,4,22,5,29,3,13-1,18a48.88,48.88,0,0,0-5,7s2,7-2,8-23,11-31,10-37-5-43-9-18-11-22-11-6-1-12-3l-15-5Z"/></svg>