<svg xmlns="http://www.w3.org/2000/svg" data-name="Calque 1" viewBox="0 0 300 210">
  <defs/>
  <path d="M74.48 82.88a108.55 108.55 0 01-11.74 14.24 57.31 57.31 0 01-7.27 5.95c-3.34 2.43-5.75 4.18-5.93 6.44-.09 1.24.52 2.51 1.89 3.87 3.67 3.68 8.56 6.29 17-2.12 1.06-1.05 2.38-2.52 3.92-4.23 5.37-6 13.48-14.94 18.46-15.07a3 3 0 012.37.92c5 5 2.92 10.51-7.78 21.21-10 10-12.37 12.38-8.48 16.26s10.28-1.16 10.56-1.37c1.88-1.47 18.54-14.65 22.78-25.67l.13-.32c3-7.67 5.38-14 1.36-18a10.52 10.52 0 00-3.16-2.09 25.43 25.43 0 00-14.08-1.81c1.82-1.92 3.5-5 1.56-7.92A7 7 0 0090.34 70c-3.65-.15-7.53 2-10.66 5.91-1.9 2.4-3.58 4.73-5.2 6.97zM59.25 65.26c-1.94 1.56-5.25 3.63-9.08 6-8.89 5.57-19 11.87-19.81 16.4a2.85 2.85 0 00.52 2.34c4 5.37 9 6.86 14.74 4.4C60.53 88 85.4 59 87.61 52.38c1.06-3.16 1.46-8.54 1-13.38-.26-2.75-1-7.16-2.89-9.08a3.11 3.11 0 00-1.25-.8 3.08 3.08 0 00-2.69.41c-3.63 2.24-6.59 10.85-7.16 14.84-.68 4.81-8.44 15.35-15.37 20.89zM36.29 19.62a11.05 11.05 0 014.53 2.55c1.25 1.24 1.79 2.16 1.72 2.88-.1 1.05-1.57 2.05-3.61 3.44-.89.61-1.91 1.29-3 2.12-2.45 1.83-5.71.92-9.47-.13C22 29.24 17 27.84 12 30.57c-7.51 4-9.67 10.48-6.6 19.69 1.34 4 9.21 6.69 13.78 7.92 6.41 1.74 13.76 2.69 17.85 2.31 7.81-.7 21.45-11.21 25.18-19.44.15-.5 3.55-12.25 1.42-20.08a12.88 12.88 0 00-3.41-5.91c-2.13-2.12-4.92-3.61-8-5.22-1.87-1-3.81-2-5.81-3.3-3.66-2.32-6.34-3-8.45-2.21s-3.7 3.29-5 8.16c-1.52 5.41.73 6.21 3.33 7.13zm-12.8 29.76a2.87 2.87 0 01-2.56-.38l-.6-.35c-2.65-1.59-6.67-4-6.92-6a1.6 1.6 0 01.59-1.39 19.3 19.3 0 001.74-2.06c1.41-1.88 2.12-2.82 5.49-1.37a11.38 11.38 0 016 5.91c-1.12 3.26-2.37 5.13-3.74 5.64zM191.87 182.54a1.52 1.52 0 00-.5-.81c-2.91-2.91-17.53-8-22.82-9.09a4.31 4.31 0 00-5 2.22c-1.91 3.56-.67 10.36 2.44 13.48 4.35 4.35 12.58 1.51 25.33-4.86a.9.9 0 00.55-.94zM206.39 179.29c1.11 1.81 5.65 1.29 10.91.71 6.65-.74 8.09 1.75 8.65 4.55a3.57 3.57 0 002 2.55c2.41 1.18 6.52.6 10.72-1.5s7.42-8.62 10.69-15.46c1.17-2.44 2.37-5 3.67-7.38a67.52 67.52 0 014.71-7.35c2.89-4.08 4.8-6.77 3.09-10.76a6.37 6.37 0 00-1.34-2 5.8 5.8 0 00-2.63-1.5c-3-.8-7.1.43-10.93 3.31-4.06 3-5.61 8.38-7.4 14.57-.78 2.69-1.59 5.48-2.67 8.28-1.2 3.12-2.6 4.89-4.29 5.43-2.33.74-4.93-1-7.44-2.67l-.25-.17c-4.42-2.95-13.94 2-17 6.5-.76 1.21-.88 2.15-.49 2.89zM263.22 161.08c.67 2.25 3.7 2.76 4.69 2.93 6 1 8.91-.66 10.66-1.65a4 4 0 011.14-.53c.83.28 2.6 2.81 3.81 5.1-2.12 7.19-8 16.73-13.95 16.73a31.2 31.2 0 01-8.42-1.73c-4.62-1.39-9-2.7-11.73 0-3.15 3.15-9 9-8.34 13.84a5.45 5.45 0 003 4.09 40.38 40.38 0 0016.2 4.43c8.07.45 14.6-1.93 18.89-6.88 7.95-9.17 22.25-34.22 19.25-39.23a18.94 18.94 0 00-2.65-3.11c-3.6-3.61-10-8.51-15.51-9.19a7.83 7.83 0 00-6.82 2.11c-1.18 1.19-2.45 2.35-3.67 3.48-4.27 3.99-7.38 6.85-6.55 9.61zM126.24 110.22c.09 1.38.18 2.6.27 3.7.54 7.19.67 8.9-2.37 18-1.39 4.18-4 7.08-6.48 9.88-3.62 4-7 7.88-4.83 14.48l.7 2.13c2.2 6.65 3.52 10.66 5.73 11 1.11.18 2.27-.59 3.63-2.41a27.37 27.37 0 003.78-7.44c1-2.79 2-5.43 4.66-8.06l5.42-5.42a4.26 4.26 0 001 2.53c1.15 1.33 3.17 1.88 6 1.62 5.21-.48 21.06-1.92 26.57-13.72.88-1.89 1.94-3.78 3-5.61 4.56-8.19 9.27-16.65-.36-26.27-.4-.41-.84-.82-1.3-1.23-13.39-12-17.2-14.4-23.91-10.68a26.21 26.21 0 00-6.13 5c-.73.75-1.64 1.69-1.91 1.68 0 0-.24-.16-.42-1.39-.52-3.65-1.84-9.92-4.78-10.91-1.2-.4-2.49.09-3.84 1.43-5.09 5.15-4.46 21.02-4.43 21.69zm21.89-4.72c.86-.14 1.84.36 3 1.52a19.32 19.32 0 015.51 12.31c-1.41 5.13-4.58 11-8.5 12.67a5.36 5.36 0 01-4.9-.32 9.51 9.51 0 01-5.06-6.23c-.58-2.7.27-5.75 2.39-8.58a36.19 36.19 0 003.22-5.63c1.39-2.81 2.71-5.47 4.34-5.74zM190.22 131.89a26.45 26.45 0 005.86.82c4 .29 8.55.63 9.38 3.11s.77 4.07-.06 5.22-2.87 1.9-5.83 1.9c-1.67 0-3.62-.12-5.68-.25-6.73-.41-14.34-.88-16.66 2.59l-.39.58c-1.68 2.49-4 5.9-3 9.72.85 3.25 3.86 6.13 9.22 8.81 14.43 7.21 30.28-2.92 36.64-9.29 8.4-8.4 5.93-22.27-.66-31.06a59.47 59.47 0 00-5.4-6.33c-4-4-8.4-6.75-12.17-5.14-4.27 1.83-12.78 12.88-12.59 17.38a1.92 1.92 0 001.34 1.94zm1.78 25.77a1.42 1.42 0 01-.8-.42 2.07 2.07 0 01-.42-.59c-.89-1.78-1.12-3.41-.6-4.25a1.72 1.72 0 011.57-.69c2.08 0 5.07 1.69 6.27 2.42-2.54 2.49-4.67 3.74-6.02 3.53z"/>
</svg>
