<svg xmlns="http://www.w3.org/2000/svg" data-name="Calque 1" viewBox="0 0 480 340">
  <defs/>
  <path d="M455.56 118.25c-2.48-2.63-3.72-3.93-6.2-6.49l-1.7-1.75-2.06 1.31c-15 9.5-25.15 24.24-34.84 38.67-6.63-2.68-10.88-4.55-17.5-7.45l-.83-.36c7.05-22.05 13.9-42 20.92-60.84l.77-2-1.73-1.35c-2.9-2.28-4.39-3.42-7.28-5.52L401.85 70l-1.34 3.81c-27.69 78.79-48.5 161.05-66.87 238.2l-.61 2.59 2.49.92a51.22 51.22 0 008.1 2.41l2.52.55 1.78-4.61c15.05-39 30.61-79.3 49.76-117.08l1.15-2.26c13.17-26 29.56-58.37 55.89-71.58l3.6-1.81zm-51.22 42c-16.2 27.2-29.41 56.31-41.55 85.5 8.81-33.5 17.25-63.33 25.94-91.68 5.93 2.43 9.89 4.04 15.61 6.16zM393.39 64.4l-2.2-1.4c-2.35-1.45-3.57-2.17-5.92-3.5l-2.95-1.68L381 61c-23.5 57-43.24 116.23-62 174.19 10.67-65.68 21.27-127.28 32.2-187.34l.49-2.72-2.69-.71c-3.77-1-5.73-1.45-9.53-2.17l-2.55-.48-.84 2.46c-9.32 27.31-18.44 55.2-27.25 82.16-14.37 44-29.23 89.43-45.36 133.57l-.7 1.93 10.55 9.3 1.49-4.17c14.06-39.45 27.33-79.89 40.16-119 4.05-12.36 8.17-24.92 12.34-37.52-9.93 57.66-19.62 116.81-29.46 179.66l-.27 1.72 1.37 1.09c3 2.35 4.47 3.52 7.55 5.8l3.35 2.49 1.29-4q4-12.33 7.93-24.67c21.93-68.25 44.58-138.86 73.3-205.81zM314.59 70q6.29-12.69 12.6-25.36l2-4-4.45-.34c-3.05-.23-4.64-.3-7.72-.36h-1.91L310.16 50c-12.62 25.81-25.61 52.36-39.24 78.32 3.8-26.65 7.74-53.8 11.73-80.94l.64-4.3L279 44c-3.31.73-5.05 1.16-8.47 2.06l-1.93.51-.27 2c-5.16 36.93-10.14 73.37-14.8 108.35-12.95 20-27.13 41-45.37 57.85l-2.85 2.64 3.27 2.09c2.64 1.69 3.95 2.55 6.64 4.39l2 1.36 1.75-1.65c12.1-11.39 22.05-24.43 31.57-38.1-2.1 22-3.88 41.18-5.53 59.49l-.15 1.56 1.21 1c2.5 2.1 3.75 3.16 6.25 5.3l4.37 3.75.57-5.73c2.81-28.58 5.82-58.22 8.93-88.11 17.46-30.23 33.19-62.01 48.4-92.76zM261.06 48.75l-5.64 1.85c-3.06 1-4.61 1.54-7.89 2.7l-1.38.49-.46 1.38c-17.11 51.26-34.37 101.26-57.5 149.42l-1.27 2.65 2.62 1.32c2.59 1.32 3.85 2 6.45 3.42l2.8 1.54 1.36-2.88c23-48.61 40.36-99.52 59-156.25zM235 57.87l-6.12 2.47L217.3 65c-9.15 3.7-18.6 7.53-27.93 11.2l-1.24.48-.47 1.32c-.75 2-1.13 2.93-1.87 4.85L183.38 89l6.23-2.26c8.86-3.23 17.6-6.5 25.45-9.48-6.5 18.11-14.72 40.37-23.83 62.31-5.14-.12-8.8-.18-13.29-.24l-8.45-.14-.81 1.81-1.41 3.13-1.85 4.08 9 .33c4.56.16 8.14.29 12.76.49-6.16 14.13-12.44 27.89-18.71 41a152.55 152.55 0 00-24.15-6l-2.32-.43-.95 2.17c-.47 1.09-.71 1.64-1.17 2.73l-1.44 3.36 3.58.75c3.61.76 7.09 1.56 10.51 2.43a97 97 0 00-18.09 7.75l-8.67 4.73 9.84.89c2.45.22 3.64.37 6.08.76l1 .16.88-.46a114 114 0 0116.72-7.14l6.81-2.49c2.39.78 4.81 1.6 7.28 2.48l2.53.9 1.17-2.42c23.5-48.29 41.63-98.1 54.8-136.1zM132.7 191.25l.82-2.14c.43-1.12.65-1.68 1.09-2.79l1.44-3.64-3.89-.44c-5.63-.65-9-.94-13.56-1.17 7.64-20.83 17.41-41.15 26.88-60.84 4.56-9.48 9.27-19.29 13.69-29l2.54-5.58-6 1.42c-3.32.79-4.9 1.13-8.05 1.71l-1.51.28-.65 1.39c-3.42 7.25-7 14.58-10.46 21.66-10.75 22-21.86 44.72-29.8 68.58-5.67-.08-9.14 0-15.31.12h-2.35l-.51 2.29c-.35 1.57-.52 2.36-.86 4l-.8 3.81 3.88-.2c15.25-.76 28.07-1 41.09.31zM53.58 198.93l-1.25.27-.67 1.09c-7.44 12.17-12.71 25-17.48 37.19l-3.29 8.39 7.66-4.75c2.67-1.65 4-2.47 6.67-4.07l.88-.53.37-1c4.24-10.86 8.92-22.37 15.42-33.29l3.54-5.94-6.75 1.47zM116 90.68l-4-.89C97.22 86.47 85.41 81.33 71.31 72l-2.43-1.6-1.67 2.38c-.54.75-.8 1.13-1.32 1.9l-1.6 2.33 2.24 1.73A101.33 101.33 0 0097.06 95.2a265.18 265.18 0 00-15.5 29.8 108.17 108.17 0 01-19.82-11l-3.29-2.19-1.23 3.75c-.36 1.13-.54 1.7-.9 2.87l-.66 2.16 1.89 1.23A115.07 115.07 0 0078.32 133c-5.81 15.52-9 31.78-11.91 48.45-9.49.3-15 .45-25.3.09l-2.85-.09-.26 2.87c-.24 2.73-.36 4.12-.59 7l-.28 3.46 3.46-.22c12.58-.81 24.73-1.85 35-2.76l2.26-.2.42-2.23c6.2-33 17.23-62.36 35.78-95.15z"/>
</svg>
