<svg xmlns="http://www.w3.org/2000/svg" data-name="Calque 1" viewBox="0 0 440 110">
  <defs/>
  <path d="M87.8 72.52C89 77.46 94.13 79.22 98 76s-1.28-27-1.57-33 2.73-25-1.32-28c-5.19-3.76-10 .47-12.85 3.61s-1.38 13.08 3 20.88-6 20.31-9 21.45-14.36-7.33-13.55 9.66 25.09 1.92 25.09 1.92zM111 75.42c4.05.81 6.05.72 7.23 4.66s-3.42 12.18-2.09 19.13 8.08 1.61 10.84-3.52 5.33-14.27 6.28-15.32 8 .62 9.66-7.46-7.13-2.67-10.22-4.52-1.29-6 .47-11 6.52-10.32 8.38-13.41 1.39-12.12-1.85-16.98-15.36-7.28-18.4-8.14-11.61 8.56-11.42 12.55 1.33 6.95 9.46 9.57 3.71 14.84 2.85 17.88-6.71 6.33-11.75 5.56-3.52 10.19.56 11zM48 77.41c-3.05-.86-17.74 5.85-21.6 9s-1.57 9.09 4.47 9.8 14.79-4.7 18.46-11.89c-.01.03 1.67-6.05-1.33-6.91zM170.69 95.29c3.23 1.76 11.08-15.76 13.78-17.64s4 4.25 10.44 7.76 9.65-7.73 7.84-17.51-8.78-37-9.84-44.31a94.73 94.73 0 00-17.07 2.87c-7.48 2.21-4.2 17-.51 29.46s-3 10.11-8.71 9.09-4.27-29.13-8.25-33.38-13.09 7.12-9.68 27.83 18.76 34.07 22 35.83zM212.8 69.59c-2.52 10.13 3.71 14.84 9.85 17.55S246.19 77 250.9 70.78s5.9-23.3 2.53-31.15-7.37-7.63-14.55-11.32-12.13-2.43-21 0-8.7 6.42-4.38 13.23 6 .71 12 .43 7.08 1.66 6.42 8.7-16.59 8.79-19.12 18.92zm11.37 7.47c-3.09-.62-4.29-6 .31-7.82a12.81 12.81 0 018.42-.4c2.02 3.06-4.69 9.03-8.73 8.22zM15.79 31.88c6.14 2.72 13.85-3.66 19-.9s2.28 5.9-4.52 10.23S16 56.9 29.49 67.28s22.07 1 29.54-10.42S56.42 23 52.09 16.15 37.77.19 19.56 5.68c-3.95 1.19-8.8 4.42-12.47 11.6s2.57 11.89 8.7 14.6zm30.82 16.56c2.19 3.9 3.38 7.85-.57 9S35.2 61 35 57s-2.29-5.9 2.61-8.13a11.66 11.66 0 019-.43zM270.56 53.76c9.06-7.14 6.12-12.37 8.74-13.83s6.17-2.09 10.77.83 10.57 25 4.2 32-19.63 10.33-19.31 17 1.08 22.75 10.32 19.63 30.08-16.18 27.85-34.86-14.52-51.62-19.94-52.71-30.78 1.47-30.19 13.52-1.49 25.55 7.56 18.42zM397.83 96.08A14.25 14.25 0 00408.57 99l2.74-.32c3.9-.46 6.58-2.21 8.25-5.18s1.85-6.83 1.46-11.65c.59-19 5.94-37 6.47-56a15.07 15.07 0 00-6.87-11.31 20.88 20.88 0 00-11.37-4.14l-3.44-.08c-4.09-.09-7.08 1.17-9.46 3.86S393 20.82 393.27 26a190.12 190.12 0 010 21.75l10.3-.37c.73-8.6 1.09-12.9.52-21.43-.18-2.73.11-4.74 1-6a4 4 0 013.5-1.91h1.61a5.88 5.88 0 014 1.94 9 9 0 012.38 5.92c-.22 19.08-4.29 37.6-4.61 56.67.19 2.69 0 4.71-.74 6.09a3.87 3.87 0 01-3 2.29l-1 .11a4.19 4.19 0 01-3.59-1.58c-1.1-1.21-1.8-3.18-2-5.91-.51-8.34-.17-12.53.54-20.92l-9.54.57a191 191 0 000 21.4c.36 5.17 2.09 9.01 5.19 11.46zM362.63 100a10.56 10.56 0 009.57 3.32l2.74-.32a13.3 13.3 0 009.44-5.48c2.33-3.17 3.16-7.28 2.89-12.39-.94-19.76.51-39.53-.56-59.28A16.61 16.61 0 00381.35 14a16.15 16.15 0 00-10.78-4.46l-2.87-.06a14.32 14.32 0 00-10.63 4.16c-3 2.89-4.73 7.06-4.57 12.42 1.37 20.72 5 41.14 6.44 61.86.17 5.31 1.24 9.38 3.69 12.08zm2.18-80.26a4.62 4.62 0 013.79-2h1.21a5.36 5.36 0 014 2.08c1.21 1.37 1.9 3.46 2 6.31.94 19.9 1.5 39.82 2.41 59.72.13 2.84-.25 5-1.16 6.46a4.48 4.48 0 01-3.28 2.41l-1 .12a3.54 3.54 0 01-3.32-1.72c-.94-1.28-1.43-3.38-1.55-6.27-1.16-20.25-3.41-40.41-4.55-60.66-.11-2.93.4-5.08 1.45-6.45zM325.49 104.23c.82 3 3 4.27 6.88 3.81l.55-.07a12.29 12.29 0 005.46-2.29 26.91 26.91 0 005.37-5 51.65 51.65 0 01-1 5.54l9.64-1.14C355 72.77 344 41.85 346.74 9.53l-10.2-.22c-3.49 27.47 5.19 52.24 7.79 79.38a11.81 11.81 0 01-2.05 6.89c-1.3 1.83-2.65 2.83-3.93 3h-.34a3.15 3.15 0 01-3.13-1.84c-.84-1.36-1.16-3.58-1.22-6.63-2.74-28-14.74-52.71-9.24-81.08l-10.19-.22c-7 29.22 7.42 53.63 10.44 82.37.06 5.67.01 10.04.82 13.05z"/>
</svg>
