<svg xmlns="http://www.w3.org/2000/svg" data-name="Calque 1" viewBox="0 0 250 250">
  <defs/>
  <path d="M165 222.8c4.4 13.33 14.3 17.12 19.42 18.15 15.45 3.14 12.33-12.6 14.75-24.55s19.82-5.75 21.52-1-3.79 9.9.3 16.06 11.3-11.93 13.7-15 7.26-4.12 6.51-10.23c-1-8.2-8.52-6.17-10.56-9.25s-7.83-9.59-16.36-11.32-21.19 3.71-26.32 7.11.64 14.34.29 20.49-4.79 1.7-6.48-3.09-5.11-5.48-14.67-6.53-6.52 5.83-2.1 19.16zM122.88 178c1.68 9.22 25.57 18.51 40.94 17.18s30.44-18.7 29.09-25.2 4.65-6.66 8.58-16c1.72-4.09 2.07-5.8-.31-11.61s-4.09-1.72-9.56-1-8.2 1-10.92-3.1-7.16-4.12-14.33-3.8-13.67 1.53-28.72 10.05-16.45 24.2-14.77 33.48zm42.39-25.4c6.12-.73 14 7.79 5.56 17.44-8.3 9.43-22.49 6.91-23.05-2s11.38-14.76 17.49-15.49zM121.34 115.16c.66 9.91-7.9 17.06-21.24 25.9s-39.71 33.71-39.39 40.88 8.88 0 21.88-7.11 64.67-47.3 66.06-54.13-2.34-19.13-11.21-23.6-16.76 8.16-16.1 18.06z"/>
  <path d="M75 149c21.59-25 37.1-55.57 68.7-69.15l-5.7-4.93c-30.24 13.24-46.09 41.7-67.46 65.41zM64.76 145.9a70.48 70.48 0 01-12.69 9.43l3.81 9.51A68.35 68.35 0 0069 154.93zM118.13 67.68c-.47 1.31-1.92 2.64-4.24 4.11-17.73 13.13-31.17 29.71-46 45.89l-3.56-6.57c-2.25 2.23-3.38 3.32-5.71 5.44l3.47 6.89a87.18 87.18 0 01-23.83 16.82c1.74 3.7 2.61 5.55 4.38 9.24a84.42 84.42 0 0023.82-17.37l2.07 4.1c2.45-2.47 3.64-3.75 6-6.36L72.36 126c15-17.34 28.37-35.13 46.73-49.09 4.17-2.69 7.07-5.07 8.32-7.56s-.28-5.06-4.57-8a52.51 52.51 0 00-6.66 2.85c1.76 1.02 2.41 2.17 1.95 3.48zM46.87 93.26c15.94-13 30.89-26.9 47.94-38.47a11.55 11.55 0 016-1.82c2 0 3.46.33 4.21 1l.31.28a2 2 0 01.4 2.58c-.49 1-1.8 2.16-3.87 3.43C83.69 73 68.63 88.87 52.07 103.59l4.38 8.69c16.87-16 31.85-33.34 50.78-47 3.89-2.42 6.66-4.4 8-6.25s.91-3.68-1.38-5.67l-.32-.28a10.67 10.67 0 00-4.18-2 32.22 32.22 0 00-5.93-1c1.53-.75 2.31-1.11 3.89-1.79l-5.67-4.93C80 54.59 61.93 69.93 42.49 84.56zM8.15 72.79q12.5-7.16 25.09-14.16a20.1 20.1 0 00-.31 5.51 13.21 13.21 0 001.3 4.86l.24.49c1.76 3.51 3.91 5.51 6.46 5.68s5.46-.89 8.65-3.23C62 62.84 74.28 54 87.32 45.82c3.44-2 5.71-3.88 6.63-5.77s.22-3.79-2.07-5.77l-.33-.28a10.59 10.59 0 00-4.06-2 25.29 25.29 0 00-5.49-.9c1.12-1 1.67-1.47 2.77-2.45l-4.59-4C55.57 38.4 29.33 48.82 5 63.1zm67.31-37.51a10 10 0 015.16-1.36 5.71 5.71 0 013.7 1.08l.31.28a2.15 2.15 0 01.62 2.49c-.33 1-1.43 2-3.25 3C69.49 48.22 57.3 56.05 45.12 64c-1.72 1.12-3.24 1.52-4.55 1.16a4.51 4.51 0 01-2.89-2.28l-.17-.31a5.19 5.19 0 01-.36-3.9A6.87 6.87 0 0140 54.88q17.7-9.83 35.46-19.6zM13 21.62c-.28 2.68.46 5.89 2.22 9.4l1.23 2.47a18.29 18.29 0 006.9 7.87 9.39 9.39 0 008.83.57C44 37.12 56 32.42 67.4 26.53c3.06-1.61 4.64-3.64 4.67-6a8.07 8.07 0 00-3.17-6.21L67 12.69a15 15 0 00-7.75-3.55A14.05 14.05 0 0051 10.51a45.12 45.12 0 01-11.93 3.76L44 20.13a62.18 62.18 0 0012.23-4.53 8 8 0 014.08-1 4.84 4.84 0 013 1.16l.82.75a2.32 2.32 0 01.75 2.31c-.19.92-1.07 1.81-2.64 2.6A104.68 104.68 0 0146.29 28L36 14.86c-7.28 1.23-11.12 1.39-18.23 2.26-2.97.36-4.52 1.82-4.77 4.5zM22.42 25c5.64-1.23 8.59-1.72 14.39-3 2.18 3 3.28 4.47 5.46 7.46-5.87 1.85-8.84 2.7-14.58 4.54a5.52 5.52 0 01-4.32-.13 6.3 6.3 0 01-2.79-2.68c-.21-.38-.31-.56-.51-.94a4.29 4.29 0 01-.49-3.25c.3-1 1.24-1.68 2.84-2z"/>
</svg>
