<svg id="Calque_1" data-name="Calque 1" xmlns="http://www.w3.org/2000/svg" viewBox="0 0 300 340"><title>mot01_curisoité</title><path d="M48.85,54.44c6.17-6.61-3.29-18.13,3.68-26.29,6.68-7.81,17.34-8.28,25.64-3,9.38,6,5,10.9,5,10.9S95.44,33.83,102,22.24C109.8,8.4,85,4.18,76.23,6.68,61.7,10.83,42.93,17.83,34.17,31.25c-5.64,8.63-8.68,17.85-15.08,25.93C14.54,62.93,4.26,63.69,4,70.86s10.71,7.28,16.18,4.58A102.62,102.62,0,0,0,48.85,54.44Z"/><path d="M126,60.32c4.27-3.06.26-6.89-3-8.1s-10.57,6.23-20.82,10.51C93.54,66.3,84,68.11,74.71,69.29c0,0,4.82-11.63,13.53-14.74s22.5-8,19-12.45C102,35.49,84.81,43.57,77.57,47,68.87,51.18,38.36,71.11,46,79.76c2.88,3.28,11.17,1.6,14.8,4.16s-6.69,2.88-1.13,11.44,14.86,4.3,19.34.11-.57-8.88.54-10.84C85.14,74.74,113,69.66,126,60.32Z"/><path d="M120,95c3.43-7.59,18.22-10.32,25.67-8.39,3.15.82,5.21,15.12,19.42,2.89,12.4-10.68-11.53-17.48-18.8-18.9a5.85,5.85,0,0,0-5-9.52c-9.62,1.08-19.64,16.72-27.78,23.82C107.18,90.33,92,98,91.94,104.61c0,4.52,9.2,6.6,14.07,6.49S116.77,102.11,120,95Z"/><path d="M187.44,100.8c4,3.42,10.55,3.27,14.85-.38s4.68-9.41.64-12.83-10.88-3.18-15.14.47S183.46,97.39,187.44,100.8Z"/><path d="M170.12,103.36c-4.11-3.42-13.17,6.35-17.78,8.8-12.16,6.47-27.88,9.58-41.53,14.58-9.54,3.5-8.41,5.59-9.6,13.75,0,0,5.5,10.82,14.44,17S127.47,148.84,130,143c4.58-10.58,19.93-19.33,31.34-24.73C170.69,113.85,174.22,106.77,170.12,103.36Z"/><path d="M210.72,188.4c.05-5.05,3.51-2.11,4.86,1.54s3.83,3.7,10.85,3.12,5-5.78,1.79-16-11.45-11.62-15.52-11.69c-11.81-.21-9.66,14.78-10.17,22.17-.67,9.64-13.87,7.57-15.55,4s1.86-8.5-1.85-12.81-6.92,11.22-8.24,14-4.54,4.32-3.24,9.08c1.74,6.39,6.57,3.72,8.29,5.9s6.25,6.61,12.12,6.83,14.12-6,17.58-9.5S210.66,193.45,210.72,188.4Z"/><path d="M237.36,210.22c5-6.47-13.71-4.81-17.89-.58s-7.34,6.29-11.72,9.73-4.77-.16-9.74,6.79-5,12.63,2.2,15.19S209,232.27,212.15,229C218.72,222.16,231.19,218.15,237.36,210.22Z"/><path d="M252.61,250.25c2.1,4.59,8-4,6.62-7.83s-2.33-5.36-.1-9,10-5.55,14.85-11.41-1.68-7.63-6.76-6.3-13,5.51-14.16,5.47-2.88-6.8-9.49-2.61,1.09,7.47,1.16,11.18-3.47,5-7.62,7-9.75,1.7-12.61,2.28-8.22,6.83-9.35,12.55,4.48,16.95,5.89,19.94,11.72,3.78,13.65,1,2.57-5.64-.48-13.9,6.79-12.81,9.11-14.16S250.5,245.66,252.61,250.25Z"/><path d="M263.65,295.9c-3.42-6.06.27-5.78,7.64-3s14.53.53,11.14-16.79c-2.43-12.36-12.66-20.37-23.68-17.3-11.23,3.12-15.83,21.3-15.3,32.53.75,16,14.75,26.5,27.7,33.61,4.76,2.6,12.08,4.52,18.18,3s-1.19-9.9-7.09-16.82S267.06,302,263.65,295.9Zm.86-27c4.68,1.82,11.78,7.55,10.17,10.38s-2.72,4.95-5.81,4-7.93-5-7.93-5C260.6,270.83,259.83,267.05,264.51,268.87Z"/><path d="M296.67,255.2c-2.7-5.52-10.18-9-16.49-7.08,0,0-4.68,2.75-3.61,5.84s13.14,10.67,17.13,11.7S299.36,260.72,296.67,255.2Z"/><path d="M258.63,199.7c11.05-4.2,9.33-10.26,7.69-13.27s-8.2-3.1-13.24,1.26C250.05,190.31,247.59,203.9,258.63,199.7Z"/><path d="M195.56,164.58c8.58-7.05,13.59-21.1,9.4-29.28-4.85-9.51-27.14-9.29-38-6.61-9.41,2.33-21.93,16.09-19.15,24.59,1.43,4.37-2.2,6-3.06,13.87-.37,3.46-.2,4.83,2.78,9s3.33.74,7.23-.61,5.93-2,8.63.79,5.93,2.17,11.23.83S184.4,173.75,195.56,164.58ZM171.45,161c-4.88-.71-9.68-8.95-.65-14.76,8.83-5.68,19.83-.82,17.94,6.28S176.33,161.68,171.45,161Z"/></svg>