<svg id="Calque_1" data-name="Calque 1" xmlns="http://www.w3.org/2000/svg" viewBox="0 0 210 160"><title>mot02_ennui</title><path d="M47.91,42.25C60.45,40.44,73,38.63,72.19,25.5S59.67,1.49,42.31,2s-35.3,0-38,16.53,12.61,43,12.61,43c6.75,7,10.44,15.71,17.84,7.35s-2-15.16-5.94-19.66-10.27-13.08-2-15.16S35.37,44.07,47.91,42.25Zm5.58-20.89c5.41,2.31,1.93,5.68-.11,6.86s-8.46-.54-8.46-.54C46.21,22.86,48.09,19.06,53.49,21.36Z"/><path d="M116.72,41.08c-.75-3.65-19.4,1.7-22.61.84s.7-5.84-.8-13.13-12.26-2.41-18.64,5.35S51.77,65,46.84,70.61A96.35,96.35,0,0,0,60.17,81.92c6.59,4.34,15.87-7.81,23.1-18.79S93,58.85,96,63.94,76.24,86.21,75.54,92.05s14,5.47,27.81-10.64S117.46,44.72,116.72,41.08Z"/><path d="M153.35,74.82c.08-3.46-1.34-7.36-4.38-11.63-.18-.24-.26-.36-.43-.6a16,16,0,0,0-4.79-4.51,16.81,16.81,0,0,0-5.88-2.23c1.07-1.44,1.63-2.15,2.79-3.52l-7.58-10.58c-14.84,21.56-21.75,55.29-45.78,69l8.44,4.78c17.9-13.65,25.85-32.14,36.65-51.45A5,5,0,0,1,137,61.55a6,6,0,0,1,4.33,2.4l.29.39a9.5,9.5,0,0,1,1.86,5A8.44,8.44,0,0,1,141.84,75c-10.42,15.76-19.25,35.93-36.07,46.15L114.2,126c14.62-12,24.48-26.42,35.53-41.55A15.91,15.91,0,0,0,153.35,74.82Z"/><path d="M178.42,105.07c-10.93,9.27-21.94,18.44-32.91,27.65a7.19,7.19,0,0,1-4.78,1.62,9,9,0,0,1-4.59-1l-.46-.28a3.61,3.61,0,0,1-1.9-2.59c-.14-1.06.48-2.2,1.84-3.42,11.83-11,22.15-23.41,33.79-34.58L161.83,81.9C150.11,95,139.83,109.23,127.7,122c-2.6,2.45-4.09,4.6-4.23,6.6s1.52,3.9,4.93,5.83l.48.27a17.82,17.82,0,0,0,5.15,1.86,41.06,41.06,0,0,0,6.06.79l-2.33,2,8.43,4.79c12.17-11.11,26.7-18.64,39.81-28.46Z"/><path d="M205.44,127.64c-2.58-4.58-3.88-6.88-6.47-11.46a28.72,28.72,0,0,1-4.85,4.75l7.33,11A14,14,0,0,0,205.44,127.64Z"/><path d="M152.08,147.45l8.44,4.78c12.1-9.61,24.66-12.08,38.36-18.6l-7.59-10.58C177.71,131,164.33,137.44,152.08,147.45Z"/></svg>