<svg xmlns="http://www.w3.org/2000/svg" data-name="Calque 1" viewBox="0 0 210 160">
  <defs/>
  <path d="M47.91 42.25C60.45 40.44 73 38.63 72.19 25.5S59.67 1.49 42.31 2s-35.3 0-38 16.53 12.61 43 12.61 43c6.75 7 10.44 15.71 17.84 7.35s-2-15.16-5.94-19.66-10.27-13.08-2-15.16 8.55 10.01 21.09 8.19zm5.58-20.89c5.41 2.31 1.93 5.68-.11 6.86s-8.46-.54-8.46-.54c1.29-4.82 3.17-8.62 8.57-6.32zM116.72 41.08c-.75-3.65-19.4 1.7-22.61.84s.7-5.84-.8-13.13-12.26-2.41-18.64 5.35S51.77 65 46.84 70.61a96.35 96.35 0 0013.33 11.31c6.59 4.34 15.87-7.81 23.1-18.79S93 58.85 96 63.94 76.24 86.21 75.54 92.05s14 5.47 27.81-10.64 14.11-36.69 13.37-40.33zM153.35 74.82c.08-3.46-1.34-7.36-4.38-11.63-.18-.24-.26-.36-.43-.6a16 16 0 00-4.79-4.51 16.81 16.81 0 00-5.88-2.23c1.07-1.44 1.63-2.15 2.79-3.52l-7.58-10.58c-14.84 21.56-21.75 55.29-45.78 69l8.44 4.78c17.9-13.65 25.85-32.14 36.65-51.45a5 5 0 014.61-2.53 6 6 0 014.33 2.4l.29.39a9.5 9.5 0 011.86 5 8.44 8.44 0 01-1.64 5.66c-10.42 15.76-19.25 35.93-36.07 46.15l8.43 4.85c14.62-12 24.48-26.42 35.53-41.55a15.91 15.91 0 003.62-9.63zM178.42 105.07c-10.93 9.27-21.94 18.44-32.91 27.65a7.19 7.19 0 01-4.78 1.62 9 9 0 01-4.59-1l-.46-.28a3.61 3.61 0 01-1.9-2.59c-.14-1.06.48-2.2 1.84-3.42 11.83-11 22.15-23.41 33.79-34.58l-7.58-10.57c-11.72 13.1-22 27.33-34.13 40.1-2.6 2.45-4.09 4.6-4.23 6.6s1.52 3.9 4.93 5.83l.48.27a17.82 17.82 0 005.15 1.86 41.06 41.06 0 006.06.79l-2.33 2 8.43 4.79c12.17-11.11 26.7-18.64 39.81-28.46zM205.44 127.64c-2.58-4.58-3.88-6.88-6.47-11.46a28.72 28.72 0 01-4.85 4.75l7.33 11a14 14 0 003.99-4.29zM152.08 147.45l8.44 4.78c12.1-9.61 24.66-12.08 38.36-18.6l-7.59-10.58c-13.58 7.95-26.96 14.39-39.21 24.4z"/>
</svg>
