<svg id="Calque_1" data-name="Calque 1" xmlns="http://www.w3.org/2000/svg" viewBox="0 0 440 110"><title>mot04_concentre</title><path d="M87.8,72.52C89,77.46,94.13,79.22,98,76s-1.28-27-1.57-33,2.73-25-1.32-28c-5.19-3.76-10,.47-12.85,3.61s-1.38,13.08,3,20.88-6,20.31-9,21.45-14.36-7.33-13.55,9.66S87.8,72.52,87.8,72.52Z"/><path d="M111,75.42c4.05.81,6.05.72,7.23,4.66s-3.42,12.18-2.09,19.13,8.08,1.61,10.84-3.52,5.33-14.27,6.28-15.32,8,.62,9.66-7.46-7.13-2.67-10.22-4.52-1.29-6,.47-11,6.52-10.32,8.38-13.41S142.94,31.86,139.7,27s-15.36-7.28-18.4-8.14-11.61,8.56-11.42,12.55,1.33,6.95,9.46,9.57,3.71,14.84,2.85,17.88-6.71,6.33-11.75,5.56S106.92,74.61,111,75.42Z"/><path d="M48,77.41c-3.05-.86-17.74,5.85-21.6,9s-1.57,9.09,4.47,9.8,14.79-4.7,18.46-11.89C49.32,84.35,51,78.27,48,77.41Z"/><path d="M170.69,95.29c3.23,1.76,11.08-15.76,13.78-17.64s4,4.25,10.44,7.76,9.65-7.73,7.84-17.51-8.78-37-9.84-44.31a94.73,94.73,0,0,0-17.07,2.87c-7.48,2.21-4.2,17-.51,29.46s-3,10.11-8.71,9.09-4.27-29.13-8.25-33.38-13.09,7.12-9.68,27.83S167.45,93.53,170.69,95.29Z"/><path d="M212.8,69.59c-2.52,10.13,3.71,14.84,9.85,17.55S246.19,77,250.9,70.78s5.9-23.3,2.53-31.15S246.06,32,238.88,28.31s-12.13-2.43-21,0-8.7,6.42-4.38,13.23,6,.71,12,.43,7.08,1.66,6.42,8.7S215.33,59.46,212.8,69.59Zm11.37,7.47c-3.09-.62-4.29-6,.31-7.82a12.81,12.81,0,0,1,8.42-.4C234.92,71.9,228.21,77.87,224.17,77.06Z"/><path d="M15.79,31.88c6.14,2.72,13.85-3.66,19-.9s2.28,5.9-4.52,10.23S16,56.9,29.49,67.28s22.07,1,29.54-10.42S56.42,23,52.09,16.15,37.77.19,19.56,5.68c-3.95,1.19-8.8,4.42-12.47,11.6S9.66,29.17,15.79,31.88ZM46.61,48.44c2.19,3.9,3.38,7.85-.57,9S35.2,61,35,57s-2.29-5.9,2.61-8.13A11.66,11.66,0,0,1,46.61,48.44Z"/><path d="M270.56,53.76c9.06-7.14,6.12-12.37,8.74-13.83s6.17-2.09,10.77.83,10.57,25,4.2,32-19.63,10.33-19.31,17,1.08,22.75,10.32,19.63,30.08-16.18,27.85-34.86-14.52-51.62-19.94-52.71S262.41,23.29,263,35.34,261.51,60.89,270.56,53.76Z"/><path d="M397.83,96.08A14.25,14.25,0,0,0,408.57,99l2.74-.32c3.9-.46,6.58-2.21,8.25-5.18s1.85-6.83,1.46-11.65c.59-19,5.94-37,6.47-56a15.07,15.07,0,0,0-6.87-11.31,20.88,20.88,0,0,0-11.37-4.14l-3.44-.08c-4.09-.09-7.08,1.17-9.46,3.86S393,20.82,393.27,26a190.12,190.12,0,0,1,0,21.75l10.3-.37c.73-8.6,1.09-12.9.52-21.43-.18-2.73.11-4.74,1-6a4,4,0,0,1,3.5-1.91h1.61a5.88,5.88,0,0,1,4,1.94,9,9,0,0,1,2.38,5.92c-.22,19.08-4.29,37.6-4.61,56.67.19,2.69,0,4.71-.74,6.09a3.87,3.87,0,0,1-3,2.29l-1,.11a4.19,4.19,0,0,1-3.59-1.58c-1.1-1.21-1.8-3.18-2-5.91-.51-8.34-.17-12.53.54-20.92l-9.54.57a191,191,0,0,0,0,21.4C393,89.79,394.73,93.63,397.83,96.08Z"/><path d="M362.63,100a10.56,10.56,0,0,0,9.57,3.32l2.74-.32a13.3,13.3,0,0,0,9.44-5.48c2.33-3.17,3.16-7.28,2.89-12.39-.94-19.76.51-39.53-.56-59.28A16.61,16.61,0,0,0,381.35,14a16.15,16.15,0,0,0-10.78-4.46l-2.87-.06a14.32,14.32,0,0,0-10.63,4.16c-3,2.89-4.73,7.06-4.57,12.42,1.37,20.72,5,41.14,6.44,61.86C359.11,93.23,360.18,97.3,362.63,100Zm2.18-80.26a4.62,4.62,0,0,1,3.79-2h1.21a5.36,5.36,0,0,1,4,2.08c1.21,1.37,1.9,3.46,2,6.31.94,19.9,1.5,39.82,2.41,59.72.13,2.84-.25,5-1.16,6.46a4.48,4.48,0,0,1-3.28,2.41l-1,.12a3.54,3.54,0,0,1-3.32-1.72c-.94-1.28-1.43-3.38-1.55-6.27-1.16-20.25-3.41-40.41-4.55-60.66C363.25,23.26,363.76,21.11,364.81,19.74Z"/><path d="M325.49,104.23c.82,3,3,4.27,6.88,3.81l.55-.07a12.29,12.29,0,0,0,5.46-2.29,26.91,26.91,0,0,0,5.37-5,51.65,51.65,0,0,1-1,5.54l9.64-1.14C355,72.77,344,41.85,346.74,9.53l-10.2-.22c-3.49,27.47,5.19,52.24,7.79,79.38a11.81,11.81,0,0,1-2.05,6.89c-1.3,1.83-2.65,2.83-3.93,3l-.34,0a3.15,3.15,0,0,1-3.13-1.84c-.84-1.36-1.16-3.58-1.22-6.63-2.74-28-14.74-52.71-9.24-81.08l-10.19-.22c-7,29.22,7.42,53.63,10.44,82.37C324.73,96.85,324.68,101.22,325.49,104.23Z"/></svg>